<svg width="530" height="512" viewBox="0 0 530 512" fill="none" xmlns="http://www.w3.org/2000/svg">
<g clip-path="url(#clip0)">
<rect width="530" height="512" fill="white"/>
<rect x="-405" y="-8" width="3471" height="520" fill="#434443"/>
<rect x="-295" y="172" width="3317" height="248" fill="#FFF6DC"/>
<rect x="-295" y="394" width="373" height="26" fill="#FFE596"/>
<rect x="78" y="314" width="373" height="106" fill="#FFE596"/>
<rect x="447" y="232" width="373" height="188" fill="#FFE596"/>
<g filter="url(#filter0_d)">
<path fill-rule="evenodd" clip-rule="evenodd" d="M74.9438 427.47H78.9438H451.944H455.944V423.47V364.387C473.59 363.665 490.354 356.842 502.897 345.201C516.178 332.875 523.639 316.157 523.639 298.726C523.639 281.294 516.178 264.577 502.897 252.251C490.354 240.61 473.59 233.786 455.944 233.064V171V167H451.944H78.9438H74.9438V171V231.564C57.2066 232.232 40.3445 239.065 27.7426 250.76C14.4613 263.086 7 279.804 7 297.235C7 314.667 14.4613 331.384 27.7426 343.71C40.3445 355.406 57.2066 362.238 74.9438 362.907V423.47V427.47ZM82.9438 419.47V175H447.944V419.47H82.9438Z" fill="#FFCC00"/>
</g>
<path fill-rule="evenodd" clip-rule="evenodd" d="M80.0801 118.42L-55.9999 118.42V119.42L77.9201 119.42L77.9201 414.84H78.9201L78.9201 119.42H80.0801V118.42Z" fill="#FFCC00"/>
<path d="M-128.985 110.5H-144.696V109.053C-144.315 109.027 -143.712 108.964 -142.887 108.862C-142.049 108.761 -141.478 108.659 -141.173 108.558C-140.792 108.431 -140.494 108.215 -140.278 107.91C-140.062 107.605 -139.954 107.187 -139.954 106.653V94.5801H-144.772V92.771H-143.725C-142.62 92.771 -141.668 92.6504 -140.868 92.4092C-140.056 92.168 -139.383 91.876 -138.85 91.5332C-138.304 91.1777 -137.859 90.8096 -137.517 90.4287C-137.161 90.0479 -136.882 89.7114 -136.679 89.4194H-133.327C-133.365 90.2446 -133.403 91.2095 -133.441 92.314C-133.479 93.4185 -133.499 94.4087 -133.499 95.2847V106.444C-133.499 106.901 -133.403 107.301 -133.213 107.644C-133.01 107.974 -132.724 108.228 -132.356 108.405C-132.026 108.558 -131.474 108.697 -130.699 108.824C-129.925 108.951 -129.354 109.027 -128.985 109.053V110.5ZM-109.523 101.474C-108.571 102.108 -107.771 102.965 -107.124 104.044C-106.477 105.111 -106.153 106.438 -106.153 108.024C-106.153 110.817 -107.238 113.096 -109.409 114.861C-111.567 116.638 -114.329 117.527 -117.693 117.527C-120.295 117.527 -122.466 116.968 -124.206 115.851C-125.945 114.734 -126.814 113.414 -126.814 111.89C-126.814 110.989 -126.529 110.227 -125.958 109.605C-125.374 108.983 -124.599 108.672 -123.634 108.672C-122.631 108.672 -121.812 108.945 -121.178 109.491C-120.53 110.024 -120.207 110.741 -120.207 111.643C-120.207 112.277 -120.314 112.969 -120.53 113.718C-120.746 114.467 -120.924 115.039 -121.063 115.432C-120.759 115.546 -120.403 115.629 -119.997 115.68C-119.591 115.743 -119.21 115.775 -118.854 115.775C-118.131 115.775 -117.42 115.61 -116.722 115.28C-116.023 114.962 -115.427 114.493 -114.932 113.871C-114.36 113.16 -113.929 112.315 -113.637 111.338C-113.345 110.373 -113.199 109.275 -113.199 108.043C-113.199 106.253 -113.681 104.787 -114.646 103.645C-115.598 102.489 -116.836 101.912 -118.359 101.912C-119.54 101.912 -120.53 102.153 -121.33 102.635C-122.13 103.105 -122.847 103.727 -123.482 104.501L-124.967 104.006L-123.12 89.9907H-107.029V95.2466H-121.749L-122.53 101.531C-121.844 101.099 -120.962 100.687 -119.883 100.293C-118.804 99.8994 -117.534 99.7026 -116.074 99.7026C-114.944 99.7026 -113.833 99.8296 -112.742 100.083C-111.637 100.325 -110.564 100.788 -109.523 101.474ZM-81.9492 92.752C-80.9844 93.7676 -80.2734 94.9292 -79.8164 96.2368C-79.3467 97.5317 -79.1118 98.8774 -79.1118 100.274C-79.1118 101.937 -79.4038 103.441 -79.9878 104.787C-80.5591 106.12 -81.3462 107.25 -82.3491 108.177C-83.4028 109.142 -84.6279 109.878 -86.0244 110.386C-87.4209 110.894 -89.0269 111.147 -90.8423 111.147C-92.7593 111.147 -94.4541 110.849 -95.9268 110.252C-97.3867 109.656 -98.6055 108.869 -99.583 107.891C-100.548 106.926 -101.284 105.79 -101.792 104.482C-102.287 103.175 -102.535 101.772 -102.535 100.274C-102.535 98.7886 -102.3 97.4111 -101.83 96.1416C-101.348 94.8721 -100.611 93.7231 -99.6211 92.6948C-98.6562 91.6919 -97.4312 90.8921 -95.9458 90.2954C-94.4604 89.686 -92.7529 89.3813 -90.8232 89.3813C-88.8301 89.3813 -87.0908 89.6924 -85.6055 90.3145C-84.1201 90.9365 -82.9014 91.749 -81.9492 92.752ZM-87.3193 106.939C-86.9512 106.088 -86.6909 105.143 -86.5386 104.102C-86.3735 103.048 -86.291 101.772 -86.291 100.274C-86.291 98.9282 -86.3672 97.7158 -86.5195 96.6367C-86.6592 95.5576 -86.9004 94.5991 -87.2432 93.7612C-87.5986 92.8979 -88.0684 92.2314 -88.6523 91.7617C-89.2363 91.292 -89.9536 91.0571 -90.8042 91.0571C-91.6675 91.0571 -92.3911 91.292 -92.9751 91.7617C-93.5591 92.2188 -94.0352 92.8726 -94.4033 93.7231C-94.7334 94.4976 -94.9746 95.4497 -95.127 96.5796C-95.2793 97.6968 -95.3555 98.9282 -95.3555 100.274C-95.3555 101.683 -95.292 102.883 -95.165 103.873C-95.0254 104.863 -94.7778 105.815 -94.4224 106.729C-94.105 107.555 -93.6479 108.221 -93.0513 108.729C-92.4546 109.237 -91.7183 109.491 -90.8423 109.491C-90.0298 109.491 -89.3252 109.262 -88.7285 108.805C-88.1318 108.348 -87.6621 107.726 -87.3193 106.939ZM-54.6035 92.752C-53.6387 93.7676 -52.9277 94.9292 -52.4707 96.2368C-52.001 97.5317 -51.7661 98.8774 -51.7661 100.274C-51.7661 101.937 -52.0581 103.441 -52.6421 104.787C-53.2134 106.12 -54.0005 107.25 -55.0034 108.177C-56.0571 109.142 -57.2822 109.878 -58.6787 110.386C-60.0752 110.894 -61.6812 111.147 -63.4966 111.147C-65.4136 111.147 -67.1084 110.849 -68.5811 110.252C-70.041 109.656 -71.2598 108.869 -72.2373 107.891C-73.2021 106.926 -73.9385 105.79 -74.4463 104.482C-74.9414 103.175 -75.189 101.772 -75.189 100.274C-75.189 98.7886 -74.9541 97.4111 -74.4844 96.1416C-74.002 94.8721 -73.2656 93.7231 -72.2754 92.6948C-71.3105 91.6919 -70.0854 90.8921 -68.6001 90.2954C-67.1147 89.686 -65.4072 89.3813 -63.4775 89.3813C-61.4844 89.3813 -59.7451 89.6924 -58.2598 90.3145C-56.7744 90.9365 -55.5557 91.749 -54.6035 92.752ZM-59.9736 106.939C-59.6055 106.088 -59.3452 105.143 -59.1929 104.102C-59.0278 103.048 -58.9453 101.772 -58.9453 100.274C-58.9453 98.9282 -59.0215 97.7158 -59.1738 96.6367C-59.3135 95.5576 -59.5547 94.5991 -59.8975 93.7612C-60.2529 92.8979 -60.7227 92.2314 -61.3066 91.7617C-61.8906 91.292 -62.6079 91.0571 -63.4585 91.0571C-64.3218 91.0571 -65.0454 91.292 -65.6294 91.7617C-66.2134 92.2188 -66.6895 92.8726 -67.0576 93.7231C-67.3877 94.4976 -67.6289 95.4497 -67.7812 96.5796C-67.9336 97.6968 -68.0098 98.9282 -68.0098 100.274C-68.0098 101.683 -67.9463 102.883 -67.8193 103.873C-67.6797 104.863 -67.4321 105.815 -67.0767 106.729C-66.7593 107.555 -66.3022 108.221 -65.7056 108.729C-65.1089 109.237 -64.3726 109.491 -63.4966 109.491C-62.6841 109.491 -61.9795 109.262 -61.3828 108.805C-60.7861 108.348 -60.3164 107.726 -59.9736 106.939ZM-26.7437 102.216H-38.2837V98.0078H-26.7437V102.216ZM2.79199 110.5H-12.9185V109.053C-12.5376 109.027 -11.9346 108.964 -11.1094 108.862C-10.2715 108.761 -9.7002 108.659 -9.39551 108.558C-9.01465 108.431 -8.71631 108.215 -8.50049 107.91C-8.28467 107.605 -8.17676 107.187 -8.17676 106.653V94.5801H-12.9946V92.771H-11.9473C-10.8428 92.771 -9.89062 92.6504 -9.09082 92.4092C-8.27832 92.168 -7.60547 91.876 -7.07227 91.5332C-6.52637 91.1777 -6.08203 90.8096 -5.73926 90.4287C-5.38379 90.0479 -5.10449 89.7114 -4.90137 89.4194H-1.5498C-1.58789 90.2446 -1.62598 91.2095 -1.66406 92.314C-1.70215 93.4185 -1.72119 94.4087 -1.72119 95.2847V106.444C-1.72119 106.901 -1.62598 107.301 -1.43555 107.644C-1.23242 107.974 -0.946777 108.228 -0.578613 108.405C-0.248535 108.558 0.303711 108.697 1.07812 108.824C1.85254 108.951 2.42383 109.027 2.79199 109.053V110.5ZM22.2539 101.474C23.2061 102.108 24.0059 102.965 24.6533 104.044C25.3008 105.111 25.6245 106.437 25.6245 108.024C25.6245 110.817 24.5391 113.096 22.3682 114.861C20.21 116.638 17.4487 117.527 14.0845 117.527C11.4819 117.527 9.31104 116.968 7.57178 115.851C5.83252 114.734 4.96289 113.414 4.96289 111.89C4.96289 110.989 5.24854 110.227 5.81982 109.605C6.40381 108.983 7.17822 108.672 8.14307 108.672C9.146 108.672 9.96484 108.945 10.5996 109.491C11.2471 110.024 11.5708 110.741 11.5708 111.643C11.5708 112.277 11.4629 112.969 11.2471 113.718C11.0312 114.467 10.8535 115.039 10.7139 115.432C11.0186 115.546 11.374 115.629 11.7803 115.68C12.1865 115.743 12.5674 115.775 12.9229 115.775C13.6465 115.775 14.3574 115.61 15.0557 115.28C15.7539 114.962 16.3506 114.493 16.8457 113.871C17.417 113.16 17.8486 112.315 18.1406 111.338C18.4326 110.373 18.5786 109.275 18.5786 108.043C18.5786 106.253 18.0962 104.787 17.1313 103.645C16.1792 102.489 14.9414 101.912 13.418 101.912C12.2373 101.912 11.2471 102.153 10.4473 102.635C9.64746 103.105 8.93018 103.727 8.29541 104.501L6.81006 104.006L8.65723 89.9907H24.7485V95.2466H10.0283L9.24756 101.531C9.93311 101.099 10.8154 100.687 11.8945 100.293C12.9736 99.8994 14.2432 99.7026 15.7031 99.7026C16.833 99.7026 17.9438 99.8296 19.0356 100.083C20.1401 100.325 21.2129 100.788 22.2539 101.474ZM45.2959 110.5H29.5854V109.053C29.9663 109.027 30.5693 108.964 31.3945 108.862C32.2324 108.761 32.8037 108.659 33.1084 108.558C33.4893 108.431 33.7876 108.215 34.0034 107.91C34.2192 107.605 34.3271 107.187 34.3271 106.653V94.5801H29.5093V92.771H30.5566C31.6611 92.771 32.6133 92.6504 33.4131 92.4092C34.2256 92.168 34.8984 91.876 35.4316 91.5332C35.9775 91.1777 36.4219 90.8096 36.7646 90.4287C37.1201 90.0479 37.3994 89.7114 37.6025 89.4194H40.9541C40.916 90.2446 40.8779 91.2095 40.8398 92.314C40.8018 93.4185 40.7827 94.4087 40.7827 95.2847V106.444C40.7827 106.901 40.8779 107.301 41.0684 107.644C41.2715 107.974 41.5571 108.228 41.9253 108.405C42.2554 108.558 42.8076 108.697 43.582 108.824C44.3564 108.951 44.9277 109.027 45.2959 109.053V110.5ZM68.9473 92.752C69.9121 93.7676 70.623 94.9292 71.0801 96.2368C71.5498 97.5317 71.7847 98.8774 71.7847 100.274C71.7847 101.937 71.4927 103.441 70.9087 104.787C70.3374 106.12 69.5503 107.25 68.5474 108.177C67.4937 109.142 66.2686 109.878 64.8721 110.386C63.4756 110.894 61.8696 111.147 60.0542 111.147C58.1372 111.147 56.4424 110.849 54.9697 110.252C53.5098 109.656 52.291 108.869 51.3135 107.891C50.3486 106.926 49.6123 105.79 49.1045 104.482C48.6094 103.175 48.3618 101.772 48.3618 100.274C48.3618 98.7886 48.5967 97.4111 49.0664 96.1416C49.5488 94.8721 50.2852 93.7231 51.2754 92.6948C52.2402 91.6919 53.4653 90.8921 54.9507 90.2954C56.436 89.686 58.1436 89.3813 60.0732 89.3813C62.0664 89.3813 63.8057 89.6924 65.291 90.3145C66.7764 90.9365 67.9951 91.749 68.9473 92.752ZM63.5771 106.939C63.9453 106.088 64.2056 105.143 64.3579 104.102C64.5229 103.048 64.6055 101.772 64.6055 100.274C64.6055 98.9282 64.5293 97.7158 64.377 96.6367C64.2373 95.5576 63.9961 94.5991 63.6533 93.7612C63.2979 92.8979 62.8281 92.2314 62.2441 91.7617C61.6602 91.292 60.9429 91.0571 60.0923 91.0571C59.229 91.0571 58.5054 91.292 57.9214 91.7617C57.3374 92.2187 56.8613 92.8726 56.4932 93.7231C56.1631 94.4976 55.9219 95.4497 55.7695 96.5796C55.6172 97.6968 55.541 98.9282 55.541 100.274C55.541 101.683 55.6045 102.883 55.7314 103.873C55.8711 104.863 56.1187 105.815 56.4741 106.729C56.7915 107.555 57.2485 108.221 57.8452 108.729C58.4419 109.237 59.1782 109.491 60.0542 109.491C60.8667 109.491 61.5713 109.262 62.168 108.805C62.7646 108.348 63.2344 107.726 63.5771 106.939Z" fill="#FFCC00"/>
<path d="M-96.0908 146.366C-96.0908 150.987 -97.6523 154.764 -100.775 157.697C-103.898 160.642 -108.164 162.47 -113.572 163.181L-114.01 161.296L-111.992 160.953C-110.43 160.509 -109.135 159.938 -108.107 159.239C-107.079 158.541 -106.234 157.729 -105.574 156.802C-104.889 155.85 -104.368 154.84 -104.013 153.774C-103.657 152.708 -103.391 151.609 -103.213 150.479C-104.33 151.457 -105.416 152.104 -106.469 152.422C-107.51 152.727 -108.685 152.879 -109.992 152.879C-111.084 152.879 -112.106 152.663 -113.058 152.231C-114.01 151.8 -114.835 151.209 -115.534 150.46C-116.245 149.699 -116.803 148.785 -117.209 147.718C-117.603 146.639 -117.8 145.471 -117.8 144.214C-117.8 141.536 -116.771 139.32 -114.715 137.568C-112.658 135.804 -110.087 134.921 -107.002 134.921C-103.664 134.921 -101.01 135.956 -99.0425 138.025C-97.0747 140.095 -96.0908 142.875 -96.0908 146.366ZM-103.042 147.414C-103.042 147.236 -103.035 147.02 -103.022 146.766C-103.01 146.512 -103.003 146.265 -103.003 146.023C-103.003 142.977 -103.372 140.647 -104.108 139.035C-104.832 137.41 -105.777 136.597 -106.945 136.597C-108.075 136.597 -108.996 137.213 -109.707 138.444C-110.405 139.676 -110.754 141.453 -110.754 143.776C-110.754 145.808 -110.398 147.426 -109.688 148.632C-108.964 149.838 -108.018 150.441 -106.85 150.441C-106.114 150.441 -105.435 150.295 -104.812 150.003C-104.19 149.711 -103.613 149.166 -103.08 148.366C-103.08 148.302 -103.073 148.194 -103.061 148.042C-103.048 147.877 -103.042 147.667 -103.042 147.414ZM-75.7529 147.014C-74.8008 147.648 -74.001 148.505 -73.3535 149.584C-72.7061 150.651 -72.3823 151.978 -72.3823 153.564C-72.3823 156.357 -73.4678 158.636 -75.6387 160.401C-77.7969 162.178 -80.5581 163.067 -83.9224 163.067C-86.5249 163.067 -88.6958 162.508 -90.4351 161.391C-92.1743 160.274 -93.0439 158.954 -93.0439 157.43C-93.0439 156.529 -92.7583 155.767 -92.187 155.145C-91.603 154.523 -90.8286 154.212 -89.8638 154.212C-88.8608 154.212 -88.042 154.485 -87.4072 155.031C-86.7598 155.564 -86.436 156.281 -86.436 157.183C-86.436 157.817 -86.5439 158.509 -86.7598 159.258C-86.9756 160.007 -87.1533 160.579 -87.293 160.972C-86.9883 161.086 -86.6328 161.169 -86.2266 161.22C-85.8203 161.283 -85.4395 161.315 -85.084 161.315C-84.3604 161.315 -83.6494 161.15 -82.9512 160.82C-82.2529 160.502 -81.6562 160.033 -81.1611 159.411C-80.5898 158.7 -80.1582 157.855 -79.8662 156.878C-79.5742 155.913 -79.4282 154.815 -79.4282 153.583C-79.4282 151.793 -79.9106 150.327 -80.8755 149.185C-81.8276 148.029 -83.0654 147.452 -84.5889 147.452C-85.7695 147.452 -86.7598 147.693 -87.5596 148.175C-88.3594 148.645 -89.0767 149.267 -89.7114 150.042L-91.1968 149.546L-89.3496 135.531H-73.2583V140.787H-87.9785L-88.7593 147.071C-88.0737 146.639 -87.1914 146.227 -86.1123 145.833C-85.0332 145.439 -83.7637 145.243 -82.3037 145.243C-81.1738 145.243 -80.063 145.37 -78.9712 145.624C-77.8667 145.865 -76.7939 146.328 -75.7529 147.014ZM-16.1675 130.542C-16.561 130.58 -16.9546 130.668 -17.3481 130.808C-17.7417 130.935 -18.1289 131.1 -18.5098 131.303C-19.0938 131.633 -19.5127 131.995 -19.7666 132.389C-20.0078 132.782 -20.23 133.258 -20.4331 133.817C-21.1313 135.747 -22.2104 138.838 -23.6704 143.091C-25.1177 147.344 -26.6284 151.762 -28.2026 156.345H-32.0303L-39.1714 136.254L-45.6079 156.345H-49.4355C-51.5557 150.175 -53.1807 145.427 -54.3105 142.101C-55.4404 138.762 -56.3926 135.962 -57.167 133.703C-57.4082 133.017 -57.6812 132.522 -57.9858 132.217C-58.2905 131.9 -58.6841 131.583 -59.1665 131.265C-59.5093 131.037 -59.8774 130.872 -60.271 130.77C-60.6519 130.656 -61.0962 130.567 -61.604 130.503V129.018H-47.1885V130.465C-48.0391 130.567 -48.6738 130.668 -49.0928 130.77C-49.5117 130.859 -49.8418 130.954 -50.083 131.056C-50.3115 131.157 -50.4512 131.265 -50.502 131.379C-50.5527 131.494 -50.5781 131.595 -50.5781 131.684C-50.5781 131.862 -50.5591 132.033 -50.521 132.198C-50.4702 132.363 -50.4194 132.554 -50.3687 132.77C-50.064 133.76 -49.4482 135.639 -48.5215 138.406C-47.5947 141.174 -46.4521 144.608 -45.0938 148.708L-38.9429 129.018H-34.9058L-27.7646 149.318C-26.7109 146.055 -25.873 143.389 -25.251 141.32C-24.6162 139.25 -24.083 137.479 -23.6514 136.007C-23.3975 135.105 -23.1943 134.35 -23.042 133.741C-22.8896 133.131 -22.8135 132.604 -22.8135 132.16C-22.8135 131.894 -22.9404 131.665 -23.1943 131.475C-23.4355 131.284 -23.7656 131.119 -24.1846 130.979C-24.54 130.865 -25.0034 130.776 -25.5747 130.713C-26.1333 130.637 -26.6221 130.58 -27.041 130.542V129.018H-16.1675V130.542ZM4.70361 151.489C4.25928 152.212 3.71973 152.898 3.08496 153.545C2.46289 154.18 1.75195 154.726 0.952148 155.183C0.101562 155.666 -0.761719 156.027 -1.6377 156.269C-2.50098 156.522 -3.49756 156.649 -4.62744 156.649C-6.50635 156.649 -8.13135 156.383 -9.50244 155.85C-10.8608 155.316 -11.9844 154.599 -12.873 153.698C-13.7617 152.796 -14.4282 151.736 -14.8726 150.518C-15.3042 149.286 -15.52 147.953 -15.52 146.519C-15.52 145.224 -15.2852 143.986 -14.8154 142.805C-14.333 141.612 -13.6538 140.552 -12.7778 139.625C-11.9146 138.724 -10.8291 137.994 -9.52148 137.435C-8.20117 136.876 -6.72852 136.597 -5.10352 136.597C-3.32617 136.597 -1.86621 136.813 -0.723633 137.245C0.418945 137.676 1.36475 138.273 2.11377 139.035C2.8374 139.758 3.36426 140.615 3.69434 141.605C4.02441 142.583 4.18945 143.611 4.18945 144.69V145.928H-8.68359C-8.68359 148.531 -8.18213 150.511 -7.1792 151.87C-6.17627 153.228 -4.58301 153.907 -2.39941 153.907C-1.20605 153.907 -0.133301 153.583 0.818848 152.936C1.771 152.276 2.5835 151.444 3.25635 150.441L4.70361 151.489ZM-2.5708 144.252C-2.5708 143.491 -2.60889 142.71 -2.68506 141.91C-2.76123 141.11 -2.89453 140.457 -3.08496 139.949C-3.30078 139.352 -3.59912 138.901 -3.97998 138.597C-4.34814 138.292 -4.81787 138.14 -5.38916 138.14C-6.3667 138.14 -7.14746 138.635 -7.73145 139.625C-8.31543 140.615 -8.63281 142.183 -8.68359 144.329L-2.5708 144.252ZM25.5176 140.634C25.5176 141.599 25.2192 142.45 24.6226 143.186C24.0259 143.91 23.2388 144.271 22.2612 144.271C21.3345 144.271 20.5474 144.037 19.8999 143.567C19.2651 143.097 18.9478 142.405 18.9478 141.491C18.9478 141.047 18.9795 140.704 19.043 140.463C19.1064 140.209 19.1636 139.974 19.2144 139.758C18.6304 139.784 18.0146 139.987 17.3672 140.368C16.7197 140.749 16.1484 141.256 15.6533 141.891V152.346C15.6533 152.79 15.7231 153.158 15.8628 153.45C16.0024 153.742 16.2373 153.971 16.5674 154.136C16.8467 154.275 17.2974 154.396 17.9194 154.498C18.5542 154.586 19.0112 154.637 19.2905 154.65V156.04H6.55078V154.65C6.86816 154.625 7.18555 154.593 7.50293 154.555C7.83301 154.504 8.1123 154.44 8.34082 154.364C8.74707 154.225 9.02637 154.009 9.17871 153.717C9.33105 153.425 9.40723 153.044 9.40723 152.574V141.491C9.40723 141.034 9.29932 140.628 9.0835 140.272C8.86768 139.904 8.60742 139.612 8.30273 139.396C8.07422 139.244 7.78223 139.117 7.42676 139.016C7.08398 138.914 6.70312 138.844 6.28418 138.806V137.416L15.3677 136.921L15.6533 137.207V139.968H15.7295C16.6055 138.952 17.5322 138.159 18.5098 137.587C19.5 137.003 20.5283 136.711 21.5947 136.711C22.7754 136.711 23.7212 137.08 24.4321 137.816C25.1558 138.54 25.5176 139.479 25.5176 140.634ZM51.2827 156.04H42.3135C41.209 154.098 40.1997 152.454 39.2856 151.108C38.3716 149.75 37.5083 148.493 36.6958 147.337L35.5532 148.309V152.46C35.5532 152.917 35.6167 153.292 35.7437 153.583C35.8833 153.875 36.1436 154.091 36.5244 154.231C36.7529 154.333 37.0195 154.421 37.3242 154.498C37.6289 154.574 37.9336 154.625 38.2383 154.65V156.04H26.4507V154.65C26.7681 154.625 27.0854 154.593 27.4028 154.555C27.7202 154.504 27.9995 154.44 28.2407 154.364C28.647 154.225 28.9199 154.009 29.0596 153.717C29.2119 153.425 29.2881 153.044 29.2881 152.574V131.341C29.2881 130.922 29.1929 130.491 29.0024 130.046C28.8247 129.589 28.5581 129.247 28.2026 129.018C27.9614 128.866 27.5996 128.739 27.1172 128.637C26.6348 128.536 26.1968 128.472 25.8032 128.447V127.057L35.2676 126.562L35.5532 126.866V146.519C36.4927 145.681 37.5464 144.709 38.7144 143.605C39.895 142.5 40.8408 141.586 41.5518 140.863C41.9707 140.431 42.1992 140.107 42.2373 139.892C42.2881 139.663 42.3135 139.523 42.3135 139.473C42.3135 139.244 42.1104 139.054 41.7041 138.901C41.3105 138.749 40.7139 138.616 39.9141 138.501V137.149H49.5879V138.463C48.3184 138.819 47.3472 139.155 46.6743 139.473C46.0142 139.777 45.2905 140.19 44.5034 140.71C43.9829 141.053 43.4751 141.415 42.98 141.796C42.4976 142.164 41.939 142.627 41.3042 143.186C42.5483 144.989 43.6973 146.658 44.751 148.194C45.8047 149.73 46.9092 151.355 48.0645 153.069C48.458 153.666 48.9468 154.066 49.5308 154.269C50.1147 154.472 50.6987 154.599 51.2827 154.65V156.04ZM71.9634 151.489C71.519 152.212 70.9795 152.898 70.3447 153.545C69.7227 154.18 69.0117 154.726 68.2119 155.183C67.3613 155.666 66.498 156.027 65.6221 156.269C64.7588 156.522 63.7622 156.649 62.6323 156.649C60.7534 156.649 59.1284 156.383 57.7573 155.85C56.3989 155.316 55.2754 154.599 54.3867 153.698C53.498 152.796 52.8315 151.736 52.3872 150.518C51.9556 149.286 51.7397 147.953 51.7397 146.519C51.7397 145.224 51.9746 143.986 52.4443 142.805C52.9268 141.612 53.606 140.552 54.4819 139.625C55.3452 138.724 56.4307 137.994 57.7383 137.435C59.0586 136.876 60.5312 136.597 62.1562 136.597C63.9336 136.597 65.3936 136.813 66.5361 137.245C67.6787 137.676 68.6245 138.273 69.3735 139.035C70.0972 139.758 70.624 140.615 70.9541 141.605C71.2842 142.583 71.4492 143.611 71.4492 144.69V145.928H58.5762C58.5762 148.531 59.0776 150.511 60.0806 151.87C61.0835 153.228 62.6768 153.907 64.8604 153.907C66.0537 153.907 67.1265 153.583 68.0786 152.936C69.0308 152.276 69.8433 151.444 70.5161 150.441L71.9634 151.489ZM64.689 144.252C64.689 143.491 64.6509 142.71 64.5747 141.91C64.4985 141.11 64.3652 140.457 64.1748 139.949C63.959 139.352 63.6606 138.901 63.2798 138.597C62.9116 138.292 62.4419 138.14 61.8706 138.14C60.8931 138.14 60.1123 138.635 59.5283 139.625C58.9443 140.615 58.627 142.183 58.5762 144.329L64.689 144.252Z" fill="#FFF6DC"/>
<path fill-rule="evenodd" clip-rule="evenodd" d="M449.08 118.42L313 118.42V119.42L446.92 119.42L446.92 414.84H447.92L447.92 119.42H449.08V118.42Z" fill="#FFCC00"/>
<path d="M251.015 110.5H235.304V109.053C235.685 109.027 236.288 108.964 237.113 108.862C237.951 108.761 238.522 108.659 238.827 108.558C239.208 108.431 239.506 108.215 239.722 107.91C239.938 107.605 240.046 107.187 240.046 106.653V94.5801H235.228V92.771H236.275C237.38 92.771 238.332 92.6504 239.132 92.4092C239.944 92.168 240.617 91.876 241.15 91.5332C241.696 91.1777 242.141 90.8096 242.483 90.4287C242.839 90.0479 243.118 89.7114 243.321 89.4194H246.673C246.635 90.2446 246.597 91.2095 246.559 92.314C246.521 93.4185 246.501 94.4087 246.501 95.2847V106.444C246.501 106.901 246.597 107.301 246.787 107.644C246.99 107.974 247.276 108.228 247.644 108.405C247.974 108.558 248.526 108.697 249.301 108.824C250.075 108.951 250.646 109.027 251.015 109.053V110.5ZM270.477 101.474C271.429 102.108 272.229 102.965 272.876 104.044C273.523 105.111 273.847 106.438 273.847 108.024C273.847 110.817 272.762 113.096 270.591 114.861C268.433 116.638 265.671 117.527 262.307 117.527C259.705 117.527 257.534 116.968 255.794 115.851C254.055 114.734 253.186 113.414 253.186 111.89C253.186 110.989 253.471 110.227 254.042 109.605C254.626 108.983 255.401 108.672 256.366 108.672C257.369 108.672 258.188 108.945 258.822 109.491C259.47 110.024 259.793 110.741 259.793 111.643C259.793 112.277 259.686 112.969 259.47 113.718C259.254 114.467 259.076 115.039 258.937 115.432C259.241 115.546 259.597 115.629 260.003 115.68C260.409 115.743 260.79 115.775 261.146 115.775C261.869 115.775 262.58 115.61 263.278 115.28C263.977 114.962 264.573 114.493 265.068 113.871C265.64 113.16 266.071 112.315 266.363 111.338C266.655 110.373 266.801 109.275 266.801 108.043C266.801 106.253 266.319 104.787 265.354 103.645C264.402 102.489 263.164 101.912 261.641 101.912C260.46 101.912 259.47 102.153 258.67 102.635C257.87 103.105 257.153 103.727 256.518 104.501L255.033 104.006L256.88 89.9907H272.971V95.2466H258.251L257.47 101.531C258.156 101.099 259.038 100.687 260.117 100.293C261.196 99.8994 262.466 99.7026 263.926 99.7026C265.056 99.7026 266.167 99.8296 267.258 100.083C268.363 100.325 269.436 100.788 270.477 101.474ZM293.519 110.5H277.808V109.053C278.189 109.027 278.792 108.964 279.617 108.862C280.455 108.761 281.026 108.659 281.331 108.558C281.712 108.431 282.01 108.215 282.226 107.91C282.442 107.605 282.55 107.187 282.55 106.653V94.5801H277.732V92.771H278.779C279.884 92.771 280.836 92.6504 281.636 92.4092C282.448 92.168 283.121 91.876 283.654 91.5332C284.2 91.1777 284.645 90.8096 284.987 90.4287C285.343 90.0479 285.622 89.7114 285.825 89.4194H289.177C289.139 90.2446 289.101 91.2095 289.062 92.314C289.024 93.4185 289.005 94.4087 289.005 95.2847V106.444C289.005 106.901 289.101 107.301 289.291 107.644C289.494 107.974 289.78 108.228 290.148 108.405C290.478 108.558 291.03 108.697 291.805 108.824C292.579 108.951 293.15 109.027 293.519 109.053V110.5ZM312.638 110.5H296.927V109.053C297.308 109.027 297.911 108.964 298.736 108.862C299.574 108.761 300.146 108.659 300.45 108.558C300.831 108.431 301.129 108.215 301.345 107.91C301.561 107.605 301.669 107.187 301.669 106.653V94.5801H296.851V92.771H297.898C299.003 92.771 299.955 92.6504 300.755 92.4092C301.567 92.168 302.24 91.876 302.773 91.5332C303.319 91.1777 303.764 90.8096 304.106 90.4287C304.462 90.0479 304.741 89.7114 304.944 89.4194H308.296C308.258 90.2446 308.22 91.2095 308.182 92.314C308.144 93.4185 308.125 94.4087 308.125 95.2847V106.444C308.125 106.901 308.22 107.301 308.41 107.644C308.613 107.974 308.899 108.228 309.267 108.405C309.597 108.558 310.149 108.697 310.924 108.824C311.698 108.951 312.27 109.027 312.638 109.053V110.5ZM336.803 102.216H325.263V98.0078H336.803V102.216ZM366.339 110.5H350.628V109.053C351.009 109.027 351.612 108.964 352.438 108.862C353.275 108.761 353.847 108.659 354.151 108.558C354.532 108.431 354.831 108.215 355.046 107.91C355.262 107.605 355.37 107.187 355.37 106.653V94.5801H350.552V92.771H351.6C352.704 92.771 353.656 92.6504 354.456 92.4092C355.269 92.168 355.941 91.876 356.475 91.5332C357.021 91.1777 357.465 90.8096 357.808 90.4287C358.163 90.0479 358.442 89.7114 358.646 89.4194H361.997C361.959 90.2446 361.921 91.2095 361.883 92.314C361.845 93.4185 361.826 94.4087 361.826 95.2847V106.444C361.826 106.901 361.921 107.301 362.111 107.644C362.314 107.974 362.6 108.228 362.968 108.405C363.298 108.558 363.851 108.697 364.625 108.824C365.399 108.951 365.971 109.027 366.339 109.053V110.5ZM385.801 101.474C386.753 102.108 387.553 102.965 388.2 104.044C388.848 105.111 389.171 106.437 389.171 108.024C389.171 110.817 388.086 113.096 385.915 114.861C383.757 116.638 380.996 117.527 377.631 117.527C375.029 117.527 372.858 116.968 371.119 115.851C369.379 114.734 368.51 113.414 368.51 111.89C368.51 110.989 368.795 110.227 369.367 109.605C369.951 108.983 370.725 108.672 371.69 108.672C372.693 108.672 373.512 108.945 374.146 109.491C374.794 110.024 375.118 110.741 375.118 111.643C375.118 112.277 375.01 112.969 374.794 113.718C374.578 114.467 374.4 115.039 374.261 115.432C374.565 115.546 374.921 115.629 375.327 115.68C375.733 115.743 376.114 115.775 376.47 115.775C377.193 115.775 377.904 115.61 378.603 115.28C379.301 114.962 379.897 114.493 380.393 113.871C380.964 113.16 381.396 112.315 381.688 111.338C381.979 110.373 382.125 109.275 382.125 108.043C382.125 106.253 381.643 104.787 380.678 103.645C379.726 102.489 378.488 101.912 376.965 101.912C375.784 101.912 374.794 102.153 373.994 102.635C373.194 103.105 372.477 103.727 371.842 104.501L370.357 104.006L372.204 89.9907H388.295V95.2466H373.575L372.794 101.531C373.48 101.099 374.362 100.687 375.441 100.293C376.521 99.8994 377.79 99.7026 379.25 99.7026C380.38 99.7026 381.491 99.8296 382.583 100.083C383.687 100.325 384.76 100.788 385.801 101.474ZM413.565 110.5H392.923V107.053C393.824 106.139 394.808 105.308 395.875 104.559C396.954 103.797 398.045 103.124 399.15 102.54C400.331 101.918 401.321 101.366 402.121 100.883C402.92 100.388 403.549 99.874 404.006 99.3408C404.463 98.8457 404.787 98.3062 404.977 97.7222C405.18 97.1382 405.282 96.4844 405.282 95.7607C405.282 94.1484 404.901 92.9741 404.139 92.2378C403.377 91.5015 402.368 91.1333 401.111 91.1333C400.718 91.1333 400.343 91.165 399.988 91.2285C399.645 91.2793 399.283 91.3809 398.902 91.5332C399.093 92.1045 399.277 92.6948 399.455 93.3042C399.632 93.9136 399.721 94.5928 399.721 95.3418C399.721 96.2432 399.397 96.9604 398.75 97.4937C398.103 98.0269 397.277 98.2935 396.274 98.2935C395.322 98.2935 394.561 97.9824 393.989 97.3604C393.431 96.7383 393.151 95.9829 393.151 95.0942C393.151 93.5454 394.053 92.2061 395.855 91.0762C397.658 89.9463 399.854 89.3813 402.444 89.3813C405.44 89.3813 407.859 89.8955 409.7 90.9238C411.553 91.9521 412.48 93.6089 412.48 95.894C412.48 97.0747 412.232 98.0269 411.737 98.7505C411.255 99.4741 410.538 100.109 409.585 100.655C408.735 101.15 407.789 101.556 406.748 101.874C405.72 102.191 404.615 102.496 403.435 102.788C402.178 103.105 401.08 103.441 400.14 103.797C399.213 104.152 398.388 104.578 397.665 105.073V105.282H413.565V110.5ZM437.826 92.752C438.791 93.7676 439.502 94.9292 439.959 96.2368C440.429 97.5317 440.664 98.8774 440.664 100.274C440.664 101.937 440.372 103.441 439.788 104.787C439.216 106.12 438.429 107.25 437.426 108.177C436.373 109.142 435.147 109.878 433.751 110.386C432.354 110.894 430.749 111.147 428.933 111.147C427.016 111.147 425.321 110.849 423.849 110.252C422.389 109.656 421.17 108.869 420.192 107.891C419.228 106.926 418.491 105.79 417.983 104.482C417.488 103.175 417.241 101.772 417.241 100.274C417.241 98.7886 417.476 97.4111 417.945 96.1416C418.428 94.8721 419.164 93.7231 420.154 92.6948C421.119 91.6919 422.344 90.8921 423.83 90.2954C425.315 89.686 427.022 89.3813 428.952 89.3813C430.945 89.3813 432.685 89.6924 434.17 90.3145C435.655 90.9365 436.874 91.749 437.826 92.752ZM432.456 106.939C432.824 106.088 433.084 105.143 433.237 104.102C433.402 103.048 433.484 101.772 433.484 100.274C433.484 98.9282 433.408 97.7158 433.256 96.6367C433.116 95.5576 432.875 94.5991 432.532 93.7612C432.177 92.8979 431.707 92.2314 431.123 91.7617C430.539 91.292 429.822 91.0571 428.971 91.0571C428.108 91.0571 427.384 91.292 426.8 91.7617C426.216 92.2187 425.74 92.8726 425.372 93.7231C425.042 94.4976 424.801 95.4497 424.648 96.5796C424.496 97.6968 424.42 98.9282 424.42 100.274C424.42 101.683 424.483 102.883 424.61 103.873C424.75 104.863 424.998 105.815 425.353 106.729C425.67 107.555 426.127 108.221 426.724 108.729C427.321 109.237 428.057 109.491 428.933 109.491C429.746 109.491 430.45 109.262 431.047 108.805C431.644 108.348 432.113 107.726 432.456 106.939Z" fill="#FFCC00"/>
<path d="M250.614 155.85H246.52V163.067H240.14V155.85H227.534V152.346L241.207 135.036H246.52V151.832H250.614V155.85ZM240.14 151.832V139.587L230.447 151.832H240.14ZM274.475 138.292C275.439 139.308 276.15 140.469 276.607 141.777C277.077 143.072 277.312 144.417 277.312 145.814C277.312 147.477 277.02 148.981 276.436 150.327C275.865 151.66 275.078 152.79 274.075 153.717C273.021 154.682 271.796 155.418 270.399 155.926C269.003 156.434 267.397 156.688 265.582 156.688C263.665 156.688 261.97 156.389 260.497 155.792C259.037 155.196 257.818 154.409 256.841 153.431C255.876 152.466 255.14 151.33 254.632 150.022C254.137 148.715 253.889 147.312 253.889 145.814C253.889 144.329 254.124 142.951 254.594 141.682C255.076 140.412 255.812 139.263 256.803 138.235C257.768 137.232 258.993 136.432 260.478 135.835C261.963 135.226 263.671 134.921 265.601 134.921C267.594 134.921 269.333 135.232 270.818 135.854C272.304 136.477 273.522 137.289 274.475 138.292ZM269.104 152.479C269.473 151.628 269.733 150.683 269.885 149.642C270.05 148.588 270.133 147.312 270.133 145.814C270.133 144.468 270.057 143.256 269.904 142.177C269.765 141.098 269.523 140.139 269.181 139.301C268.825 138.438 268.355 137.771 267.771 137.302C267.188 136.832 266.47 136.597 265.62 136.597C264.756 136.597 264.033 136.832 263.449 137.302C262.865 137.759 262.389 138.413 262.021 139.263C261.69 140.038 261.449 140.99 261.297 142.12C261.145 143.237 261.068 144.468 261.068 145.814C261.068 147.223 261.132 148.423 261.259 149.413C261.398 150.403 261.646 151.355 262.001 152.27C262.319 153.095 262.776 153.761 263.373 154.269C263.969 154.777 264.706 155.031 265.582 155.031C266.394 155.031 267.099 154.802 267.695 154.345C268.292 153.888 268.762 153.266 269.104 152.479ZM297.288 156.04H281.578V154.593C281.958 154.567 282.562 154.504 283.387 154.402C284.225 154.301 284.796 154.199 285.101 154.098C285.481 153.971 285.78 153.755 285.996 153.45C286.211 153.146 286.319 152.727 286.319 152.193V140.12H281.501V138.311H282.549C283.653 138.311 284.605 138.19 285.405 137.949C286.218 137.708 286.891 137.416 287.424 137.073C287.97 136.718 288.414 136.35 288.757 135.969C289.112 135.588 289.392 135.251 289.595 134.959H292.946C292.908 135.785 292.87 136.75 292.832 137.854C292.794 138.958 292.775 139.949 292.775 140.825V151.984C292.775 152.441 292.87 152.841 293.061 153.184C293.264 153.514 293.549 153.768 293.917 153.945C294.248 154.098 294.8 154.237 295.574 154.364C296.349 154.491 296.92 154.567 297.288 154.593V156.04ZM352.951 130.542C352.557 130.58 352.164 130.668 351.77 130.808C351.376 130.935 350.989 131.1 350.608 131.303C350.024 131.633 349.605 131.995 349.352 132.389C349.11 132.782 348.888 133.258 348.685 133.817C347.987 135.747 346.908 138.838 345.448 143.091C344 147.344 342.49 151.762 340.916 156.345H337.088L329.947 136.254L323.51 156.345H319.683C317.562 150.175 315.938 145.427 314.808 142.101C313.678 138.762 312.726 135.962 311.951 133.703C311.71 133.017 311.437 132.522 311.132 132.217C310.828 131.9 310.434 131.583 309.952 131.265C309.609 131.037 309.241 130.872 308.847 130.77C308.466 130.656 308.022 130.567 307.514 130.503V129.018H321.93V130.465C321.079 130.567 320.444 130.668 320.025 130.77C319.606 130.859 319.276 130.954 319.035 131.056C318.807 131.157 318.667 131.265 318.616 131.379C318.565 131.494 318.54 131.595 318.54 131.684C318.54 131.862 318.559 132.033 318.597 132.198C318.648 132.363 318.699 132.554 318.75 132.77C319.054 133.76 319.67 135.639 320.597 138.406C321.523 141.174 322.666 144.608 324.024 148.708L330.175 129.018H334.212L341.354 149.318C342.407 146.055 343.245 143.389 343.867 141.32C344.502 139.25 345.035 137.479 345.467 136.007C345.721 135.105 345.924 134.35 346.076 133.741C346.229 133.131 346.305 132.604 346.305 132.16C346.305 131.894 346.178 131.665 345.924 131.475C345.683 131.284 345.353 131.119 344.934 130.979C344.578 130.865 344.115 130.776 343.543 130.713C342.985 130.637 342.496 130.58 342.077 130.542V129.018H352.951V130.542ZM373.822 151.489C373.377 152.212 372.838 152.898 372.203 153.545C371.581 154.18 370.87 154.726 370.07 155.183C369.22 155.666 368.356 156.027 367.48 156.269C366.617 156.522 365.621 156.649 364.491 156.649C362.612 156.649 360.987 156.383 359.616 155.85C358.257 155.316 357.134 154.599 356.245 153.698C355.356 152.796 354.69 151.736 354.246 150.518C353.814 149.286 353.598 147.953 353.598 146.519C353.598 145.224 353.833 143.986 354.303 142.805C354.785 141.612 355.464 140.552 356.34 139.625C357.204 138.724 358.289 137.994 359.597 137.435C360.917 136.876 362.39 136.597 364.015 136.597C365.792 136.597 367.252 136.813 368.395 137.245C369.537 137.676 370.483 138.273 371.232 139.035C371.956 139.758 372.482 140.615 372.812 141.605C373.143 142.583 373.308 143.611 373.308 144.69V145.928H360.435C360.435 148.531 360.936 150.511 361.939 151.87C362.942 153.228 364.535 153.907 366.719 153.907C367.912 153.907 368.985 153.583 369.937 152.936C370.889 152.276 371.702 151.444 372.375 150.441L373.822 151.489ZM366.547 144.252C366.547 143.491 366.509 142.71 366.433 141.91C366.357 141.11 366.224 140.457 366.033 139.949C365.817 139.352 365.519 138.901 365.138 138.597C364.77 138.292 364.3 138.14 363.729 138.14C362.751 138.14 361.971 138.635 361.387 139.625C360.803 140.615 360.485 142.183 360.435 144.329L366.547 144.252ZM394.636 140.634C394.636 141.599 394.337 142.45 393.741 143.186C393.144 143.91 392.357 144.271 391.379 144.271C390.453 144.271 389.666 144.037 389.018 143.567C388.383 143.097 388.066 142.405 388.066 141.491C388.066 141.047 388.098 140.704 388.161 140.463C388.225 140.209 388.282 139.974 388.333 139.758C387.749 139.784 387.133 139.987 386.485 140.368C385.838 140.749 385.267 141.256 384.771 141.891V152.346C384.771 152.79 384.841 153.158 384.981 153.45C385.121 153.742 385.355 153.971 385.686 154.136C385.965 154.275 386.416 154.396 387.038 154.498C387.672 154.586 388.129 154.637 388.409 154.65V156.04H375.669V154.65C375.986 154.625 376.304 154.593 376.621 154.555C376.951 154.504 377.23 154.44 377.459 154.364C377.865 154.225 378.145 154.009 378.297 153.717C378.449 153.425 378.525 153.044 378.525 152.574V141.491C378.525 141.034 378.417 140.628 378.202 140.272C377.986 139.904 377.726 139.612 377.421 139.396C377.192 139.244 376.9 139.117 376.545 139.016C376.202 138.914 375.821 138.844 375.402 138.806V137.416L384.486 136.921L384.771 137.207V139.968H384.848C385.724 138.952 386.65 138.159 387.628 137.587C388.618 137.003 389.646 136.711 390.713 136.711C391.894 136.711 392.839 137.08 393.55 137.816C394.274 138.54 394.636 139.479 394.636 140.634ZM420.401 156.04H411.432C410.327 154.098 409.318 152.454 408.404 151.108C407.49 149.75 406.626 148.493 405.814 147.337L404.671 148.309V152.46C404.671 152.917 404.735 153.292 404.862 153.583C405.001 153.875 405.262 154.091 405.643 154.231C405.871 154.333 406.138 154.421 406.442 154.498C406.747 154.574 407.052 154.625 407.356 154.65V156.04H395.569V154.65C395.886 154.625 396.204 154.593 396.521 154.555C396.838 154.504 397.118 154.44 397.359 154.364C397.765 154.225 398.038 154.009 398.178 153.717C398.33 153.425 398.406 153.044 398.406 152.574V131.341C398.406 130.922 398.311 130.491 398.121 130.046C397.943 129.589 397.676 129.247 397.321 129.018C397.08 128.866 396.718 128.739 396.235 128.637C395.753 128.536 395.315 128.472 394.921 128.447V127.057L404.386 126.562L404.671 126.866V146.519C405.611 145.681 406.665 144.709 407.833 143.605C409.013 142.5 409.959 141.586 410.67 140.863C411.089 140.431 411.317 140.107 411.355 139.892C411.406 139.663 411.432 139.523 411.432 139.473C411.432 139.244 411.229 139.054 410.822 138.901C410.429 138.749 409.832 138.616 409.032 138.501V137.149H418.706V138.463C417.437 138.819 416.465 139.155 415.792 139.473C415.132 139.777 414.409 140.19 413.622 140.71C413.101 141.053 412.593 141.415 412.098 141.796C411.616 142.164 411.057 142.627 410.422 143.186C411.667 144.989 412.815 146.658 413.869 148.194C414.923 149.73 416.027 151.355 417.183 153.069C417.576 153.666 418.065 154.066 418.649 154.269C419.233 154.472 419.817 154.599 420.401 154.65V156.04ZM441.082 151.489C440.637 152.212 440.098 152.898 439.463 153.545C438.841 154.18 438.13 154.726 437.33 155.183C436.479 155.666 435.616 156.027 434.74 156.269C433.877 156.522 432.88 156.649 431.75 156.649C429.872 156.649 428.247 156.383 426.875 155.85C425.517 155.316 424.394 154.599 423.505 153.698C422.616 152.796 421.95 151.736 421.505 150.518C421.074 149.286 420.858 147.953 420.858 146.519C420.858 145.224 421.093 143.986 421.562 142.805C422.045 141.612 422.724 140.552 423.6 139.625C424.463 138.724 425.549 137.994 426.856 137.435C428.177 136.876 429.649 136.597 431.274 136.597C433.052 136.597 434.512 136.813 435.654 137.245C436.797 137.676 437.743 138.273 438.492 139.035C439.215 139.758 439.742 140.615 440.072 141.605C440.402 142.583 440.567 143.611 440.567 144.69V145.928H427.694C427.694 148.531 428.196 150.511 429.199 151.87C430.202 153.228 431.795 153.907 433.979 153.907C435.172 153.907 436.245 153.583 437.197 152.936C438.149 152.276 438.961 151.444 439.634 150.441L441.082 151.489ZM433.807 144.252C433.807 143.491 433.769 142.71 433.693 141.91C433.617 141.11 433.483 140.457 433.293 139.949C433.077 139.352 432.779 138.901 432.398 138.597C432.03 138.292 431.56 138.14 430.989 138.14C430.011 138.14 429.23 138.635 428.646 139.625C428.062 140.615 427.745 142.183 427.694 144.329L433.807 144.252Z" fill="#FFF6DC"/>
</g>
<defs>
<filter id="filter0_d" x="4" y="164" width="530.639" height="274.47" filterUnits="userSpaceOnUse" color-interpolation-filters="sRGB">
<feFlood flood-opacity="0" result="BackgroundImageFix"/>
<feColorMatrix in="SourceAlpha" type="matrix" values="0 0 0 0 0 0 0 0 0 0 0 0 0 0 0 0 0 0 127 0"/>
<feOffset dx="4" dy="4"/>
<feGaussianBlur stdDeviation="3.5"/>
<feColorMatrix type="matrix" values="0 0 0 0 0 0 0 0 0 0 0 0 0 0 0 0 0 0 0.2 0"/>
<feBlend mode="normal" in2="BackgroundImageFix" result="effect1_dropShadow"/>
<feBlend mode="normal" in="SourceGraphic" in2="effect1_dropShadow" result="shape"/>
</filter>
<clipPath id="clip0">
<rect width="530" height="512" fill="white"/>
</clipPath>
</defs>
</svg>
