<svg width="1024" height="1024" viewBox="0 0 1024 1024" fill="none" xmlns="http://www.w3.org/2000/svg">
<g clip-path="url(#clip0)">
<rect width="1024" height="1024" fill="white"/>
<rect width="1024" height="1024" fill="#434443"/>
<rect y="422" width="3317" height="248" fill="#FFF6DC"/>
<rect y="644" width="373" height="26" fill="#FFE596"/>
<rect x="373" y="564" width="373" height="106" fill="#FFE596"/>
<rect x="742" y="482" width="373" height="188" fill="#FFE596"/>
<g filter="url(#filter0_d)">
<path fill-rule="evenodd" clip-rule="evenodd" d="M363.944 676.47H367.944H678.201H682.201V672.47V611.907C699.939 611.238 716.801 604.406 729.402 592.71C742.684 580.384 750.145 563.667 750.145 546.235C750.145 528.804 742.684 512.086 729.402 499.76C716.801 488.065 699.938 481.232 682.201 480.564V420V416H678.201H367.944H363.944V420V480.564C346.207 481.232 329.344 488.065 316.743 499.76C303.461 512.086 296 528.804 296 546.235C296 563.667 303.461 580.384 316.743 592.71C329.344 604.406 346.207 611.238 363.944 611.907V672.47V676.47ZM371.944 668.47V424H674.201V668.47H371.944Z" fill="#FFCC00"/>
</g>
<path fill-rule="evenodd" clip-rule="evenodd" d="M375.08 368.42L239 368.42V369.42L372.92 369.42L372.92 664.84H373.92L373.92 369.42H375.08V368.42Z" fill="#FFCC00"/>
<path d="M166.015 360.5H150.304V359.053C150.685 359.027 151.288 358.964 152.113 358.862C152.951 358.761 153.522 358.659 153.827 358.558C154.208 358.431 154.506 358.215 154.722 357.91C154.938 357.605 155.046 357.187 155.046 356.653V344.58H150.228V342.771H151.275C152.38 342.771 153.332 342.65 154.132 342.409C154.944 342.168 155.617 341.876 156.15 341.533C156.696 341.178 157.141 340.81 157.483 340.429C157.839 340.048 158.118 339.711 158.321 339.419H161.673C161.635 340.245 161.597 341.209 161.559 342.314C161.521 343.418 161.501 344.409 161.501 345.285V356.444C161.501 356.901 161.597 357.301 161.787 357.644C161.99 357.974 162.276 358.228 162.644 358.405C162.974 358.558 163.526 358.697 164.301 358.824C165.075 358.951 165.646 359.027 166.015 359.053V360.5ZM185.477 351.474C186.429 352.108 187.229 352.965 187.876 354.044C188.523 355.111 188.847 356.438 188.847 358.024C188.847 360.817 187.762 363.096 185.591 364.861C183.433 366.638 180.671 367.527 177.307 367.527C174.705 367.527 172.534 366.968 170.794 365.851C169.055 364.734 168.186 363.414 168.186 361.89C168.186 360.989 168.471 360.227 169.042 359.605C169.626 358.983 170.401 358.672 171.366 358.672C172.369 358.672 173.188 358.945 173.822 359.491C174.47 360.024 174.793 360.741 174.793 361.643C174.793 362.277 174.686 362.969 174.47 363.718C174.254 364.467 174.076 365.039 173.937 365.432C174.241 365.546 174.597 365.629 175.003 365.68C175.409 365.743 175.79 365.775 176.146 365.775C176.869 365.775 177.58 365.61 178.278 365.28C178.977 364.962 179.573 364.493 180.068 363.871C180.64 363.16 181.071 362.315 181.363 361.338C181.655 360.373 181.801 359.275 181.801 358.043C181.801 356.253 181.319 354.787 180.354 353.645C179.402 352.489 178.164 351.912 176.641 351.912C175.46 351.912 174.47 352.153 173.67 352.635C172.87 353.105 172.153 353.727 171.518 354.501L170.033 354.006L171.88 339.991H187.971V345.247H173.251L172.47 351.531C173.156 351.099 174.038 350.687 175.117 350.293C176.196 349.899 177.466 349.703 178.926 349.703C180.056 349.703 181.167 349.83 182.258 350.083C183.363 350.325 184.436 350.788 185.477 351.474ZM213.051 342.752C214.016 343.768 214.727 344.929 215.184 346.237C215.653 347.532 215.888 348.877 215.888 350.274C215.888 351.937 215.596 353.441 215.012 354.787C214.441 356.12 213.654 357.25 212.651 358.177C211.597 359.142 210.372 359.878 208.976 360.386C207.579 360.894 205.973 361.147 204.158 361.147C202.241 361.147 200.546 360.849 199.073 360.252C197.613 359.656 196.395 358.869 195.417 357.891C194.452 356.926 193.716 355.79 193.208 354.482C192.713 353.175 192.465 351.772 192.465 350.274C192.465 348.789 192.7 347.411 193.17 346.142C193.652 344.872 194.389 343.723 195.379 342.695C196.344 341.692 197.569 340.892 199.054 340.295C200.54 339.686 202.247 339.381 204.177 339.381C206.17 339.381 207.909 339.692 209.395 340.314C210.88 340.937 212.099 341.749 213.051 342.752ZM207.681 356.939C208.049 356.088 208.309 355.143 208.461 354.102C208.626 353.048 208.709 351.772 208.709 350.274C208.709 348.928 208.633 347.716 208.48 346.637C208.341 345.558 208.1 344.599 207.757 343.761C207.401 342.898 206.932 342.231 206.348 341.762C205.764 341.292 205.046 341.057 204.196 341.057C203.333 341.057 202.609 341.292 202.025 341.762C201.441 342.219 200.965 342.873 200.597 343.723C200.267 344.498 200.025 345.45 199.873 346.58C199.721 347.697 199.645 348.928 199.645 350.274C199.645 351.683 199.708 352.883 199.835 353.873C199.975 354.863 200.222 355.815 200.578 356.729C200.895 357.555 201.352 358.221 201.949 358.729C202.545 359.237 203.282 359.491 204.158 359.491C204.97 359.491 205.675 359.262 206.271 358.805C206.868 358.348 207.338 357.726 207.681 356.939ZM240.396 342.752C241.361 343.768 242.072 344.929 242.529 346.237C242.999 347.532 243.234 348.877 243.234 350.274C243.234 351.937 242.942 353.441 242.358 354.787C241.787 356.12 241 357.25 239.997 358.177C238.943 359.142 237.718 359.878 236.321 360.386C234.925 360.894 233.319 361.147 231.503 361.147C229.586 361.147 227.892 360.849 226.419 360.252C224.959 359.656 223.74 358.869 222.763 357.891C221.798 356.926 221.062 355.79 220.554 354.482C220.059 353.175 219.811 351.772 219.811 350.274C219.811 348.789 220.046 347.411 220.516 346.142C220.998 344.872 221.734 343.723 222.725 342.695C223.689 341.692 224.915 340.892 226.4 340.295C227.885 339.686 229.593 339.381 231.522 339.381C233.516 339.381 235.255 339.692 236.74 340.314C238.226 340.937 239.444 341.749 240.396 342.752ZM235.026 356.939C235.395 356.088 235.655 355.143 235.807 354.102C235.972 353.048 236.055 351.772 236.055 350.274C236.055 348.928 235.979 347.716 235.826 346.637C235.687 345.558 235.445 344.599 235.103 343.761C234.747 342.898 234.277 342.231 233.693 341.762C233.109 341.292 232.392 341.057 231.542 341.057C230.678 341.057 229.955 341.292 229.371 341.762C228.787 342.219 228.311 342.873 227.942 343.723C227.612 344.498 227.371 345.45 227.219 346.58C227.066 347.697 226.99 348.928 226.99 350.274C226.99 351.683 227.054 352.883 227.181 353.873C227.32 354.863 227.568 355.815 227.923 356.729C228.241 357.555 228.698 358.221 229.294 358.729C229.891 359.237 230.627 359.491 231.503 359.491C232.316 359.491 233.021 359.262 233.617 358.805C234.214 358.348 234.684 357.726 235.026 356.939ZM268.256 352.216H256.716V348.008H268.256V352.216ZM297.792 360.5H282.082V359.053C282.462 359.027 283.065 358.964 283.891 358.862C284.729 358.761 285.3 358.659 285.604 358.558C285.985 358.431 286.284 358.215 286.5 357.91C286.715 357.605 286.823 357.187 286.823 356.653V344.58H282.005V342.771H283.053C284.157 342.771 285.109 342.65 285.909 342.409C286.722 342.168 287.395 341.876 287.928 341.533C288.474 341.178 288.918 340.81 289.261 340.429C289.616 340.048 289.896 339.711 290.099 339.419H293.45C293.412 340.245 293.374 341.209 293.336 342.314C293.298 343.418 293.279 344.409 293.279 345.285V356.444C293.279 356.901 293.374 357.301 293.564 357.644C293.768 357.974 294.053 358.228 294.421 358.405C294.751 358.558 295.304 358.697 296.078 358.824C296.853 358.951 297.424 359.027 297.792 359.053V360.5ZM317.254 351.474C318.206 352.108 319.006 352.965 319.653 354.044C320.301 355.111 320.625 356.438 320.625 358.024C320.625 360.817 319.539 363.096 317.368 364.861C315.21 366.638 312.449 367.527 309.084 367.527C306.482 367.527 304.311 366.968 302.572 365.851C300.833 364.734 299.963 363.414 299.963 361.89C299.963 360.989 300.249 360.227 300.82 359.605C301.404 358.983 302.178 358.672 303.143 358.672C304.146 358.672 304.965 358.945 305.6 359.491C306.247 360.024 306.571 360.741 306.571 361.643C306.571 362.277 306.463 362.969 306.247 363.718C306.031 364.467 305.854 365.039 305.714 365.432C306.019 365.546 306.374 365.629 306.78 365.68C307.187 365.743 307.567 365.775 307.923 365.775C308.646 365.775 309.357 365.61 310.056 365.28C310.754 364.962 311.351 364.493 311.846 363.871C312.417 363.16 312.849 362.315 313.141 361.338C313.433 360.373 313.579 359.275 313.579 358.043C313.579 356.253 313.096 354.787 312.131 353.645C311.179 352.489 309.941 351.912 308.418 351.912C307.237 351.912 306.247 352.153 305.447 352.635C304.647 353.105 303.93 353.727 303.295 354.501L301.81 354.006L303.657 339.991H319.749V345.247H305.028L304.248 351.531C304.933 351.099 305.815 350.687 306.895 350.293C307.974 349.899 309.243 349.703 310.703 349.703C311.833 349.703 312.944 349.83 314.036 350.083C315.14 350.325 316.213 350.788 317.254 351.474ZM340.296 360.5H324.585V359.053C324.966 359.027 325.569 358.964 326.395 358.862C327.232 358.761 327.804 358.659 328.108 358.558C328.489 358.431 328.788 358.215 329.003 357.91C329.219 357.605 329.327 357.187 329.327 356.653V344.58H324.509V342.771H325.557C326.661 342.771 327.613 342.65 328.413 342.409C329.226 342.168 329.898 341.876 330.432 341.533C330.978 341.178 331.422 340.81 331.765 340.429C332.12 340.048 332.399 339.711 332.603 339.419H335.954C335.916 340.245 335.878 341.209 335.84 342.314C335.802 343.418 335.783 344.409 335.783 345.285V356.444C335.783 356.901 335.878 357.301 336.068 357.644C336.271 357.974 336.557 358.228 336.925 358.405C337.255 358.558 337.808 358.697 338.582 358.824C339.356 358.951 339.928 359.027 340.296 359.053V360.5ZM363.947 342.752C364.912 343.768 365.623 344.929 366.08 346.237C366.55 347.532 366.785 348.877 366.785 350.274C366.785 351.937 366.493 353.441 365.909 354.787C365.337 356.12 364.55 357.25 363.547 358.177C362.494 359.142 361.269 359.878 359.872 360.386C358.476 360.894 356.87 361.147 355.054 361.147C353.137 361.147 351.442 360.849 349.97 360.252C348.51 359.656 347.291 358.869 346.313 357.891C345.349 356.926 344.612 355.79 344.104 354.482C343.609 353.175 343.362 351.772 343.362 350.274C343.362 348.789 343.597 347.411 344.066 346.142C344.549 344.872 345.285 343.723 346.275 342.695C347.24 341.692 348.465 340.892 349.951 340.295C351.436 339.686 353.144 339.381 355.073 339.381C357.066 339.381 358.806 339.692 360.291 340.314C361.776 340.937 362.995 341.749 363.947 342.752ZM358.577 356.939C358.945 356.088 359.206 355.143 359.358 354.102C359.523 353.048 359.605 351.772 359.605 350.274C359.605 348.928 359.529 347.716 359.377 346.637C359.237 345.558 358.996 344.599 358.653 343.761C358.298 342.898 357.828 342.231 357.244 341.762C356.66 341.292 355.943 341.057 355.092 341.057C354.229 341.057 353.505 341.292 352.921 341.762C352.337 342.219 351.861 342.873 351.493 343.723C351.163 344.498 350.922 345.45 350.77 346.58C350.617 347.697 350.541 348.928 350.541 350.274C350.541 351.683 350.604 352.883 350.731 353.873C350.871 354.863 351.119 355.815 351.474 356.729C351.792 357.555 352.249 358.221 352.845 358.729C353.442 359.237 354.178 359.491 355.054 359.491C355.867 359.491 356.571 359.262 357.168 358.805C357.765 358.348 358.234 357.726 358.577 356.939Z" fill="#FFCC00"/>
<path d="M198.909 396.366C198.909 400.987 197.348 404.764 194.225 407.697C191.102 410.642 186.836 412.47 181.428 413.181L180.99 411.296L183.008 410.953C184.57 410.509 185.865 409.938 186.893 409.239C187.921 408.541 188.766 407.729 189.426 406.802C190.111 405.85 190.632 404.84 190.987 403.774C191.343 402.708 191.609 401.609 191.787 400.479C190.67 401.457 189.584 402.104 188.531 402.422C187.49 402.727 186.315 402.879 185.008 402.879C183.916 402.879 182.894 402.663 181.942 402.231C180.99 401.8 180.165 401.209 179.466 400.46C178.755 399.699 178.197 398.785 177.791 397.718C177.397 396.639 177.2 395.471 177.2 394.214C177.2 391.536 178.229 389.32 180.285 387.568C182.342 385.804 184.913 384.921 187.998 384.921C191.336 384.921 193.99 385.956 195.958 388.025C197.925 390.095 198.909 392.875 198.909 396.366ZM191.958 397.414C191.958 397.236 191.965 397.02 191.978 396.766C191.99 396.512 191.997 396.265 191.997 396.023C191.997 392.977 191.628 390.647 190.892 389.035C190.168 387.41 189.223 386.597 188.055 386.597C186.925 386.597 186.004 387.213 185.293 388.444C184.595 389.676 184.246 391.453 184.246 393.776C184.246 395.808 184.602 397.426 185.312 398.632C186.036 399.838 186.982 400.441 188.15 400.441C188.886 400.441 189.565 400.295 190.188 400.003C190.81 399.711 191.387 399.166 191.92 398.366C191.92 398.302 191.927 398.194 191.939 398.042C191.952 397.877 191.958 397.667 191.958 397.414ZM219.247 397.014C220.199 397.648 220.999 398.505 221.646 399.584C222.294 400.651 222.618 401.978 222.618 403.564C222.618 406.357 221.532 408.636 219.361 410.401C217.203 412.178 214.442 413.067 211.078 413.067C208.475 413.067 206.304 412.508 204.565 411.391C202.826 410.274 201.956 408.954 201.956 407.43C201.956 406.529 202.242 405.767 202.813 405.145C203.397 404.523 204.171 404.212 205.136 404.212C206.139 404.212 206.958 404.485 207.593 405.031C208.24 405.564 208.564 406.281 208.564 407.183C208.564 407.817 208.456 408.509 208.24 409.258C208.024 410.007 207.847 410.579 207.707 410.972C208.012 411.086 208.367 411.169 208.773 411.22C209.18 411.283 209.561 411.315 209.916 411.315C210.64 411.315 211.351 411.15 212.049 410.82C212.747 410.502 213.344 410.033 213.839 409.411C214.41 408.7 214.842 407.855 215.134 406.878C215.426 405.913 215.572 404.815 215.572 403.583C215.572 401.793 215.089 400.327 214.125 399.185C213.172 398.029 211.935 397.452 210.411 397.452C209.23 397.452 208.24 397.693 207.44 398.175C206.641 398.645 205.923 399.267 205.289 400.042L203.803 399.546L205.65 385.531H221.742V390.787H207.021L206.241 397.071C206.926 396.639 207.809 396.227 208.888 395.833C209.967 395.439 211.236 395.243 212.696 395.243C213.826 395.243 214.937 395.37 216.029 395.624C217.133 395.865 218.206 396.328 219.247 397.014ZM278.833 380.542C278.439 380.58 278.045 380.668 277.652 380.808C277.258 380.935 276.871 381.1 276.49 381.303C275.906 381.633 275.487 381.995 275.233 382.389C274.992 382.782 274.77 383.258 274.567 383.817C273.869 385.747 272.79 388.838 271.33 393.091C269.882 397.344 268.372 401.762 266.797 406.345H262.97L255.829 386.254L249.392 406.345H245.564C243.444 400.175 241.819 395.427 240.689 392.101C239.56 388.762 238.607 385.962 237.833 383.703C237.592 383.017 237.319 382.522 237.014 382.217C236.709 381.9 236.316 381.583 235.833 381.265C235.491 381.037 235.123 380.872 234.729 380.77C234.348 380.656 233.904 380.567 233.396 380.503V379.018H247.812V380.465C246.961 380.567 246.326 380.668 245.907 380.77C245.488 380.859 245.158 380.954 244.917 381.056C244.688 381.157 244.549 381.265 244.498 381.379C244.447 381.494 244.422 381.595 244.422 381.684C244.422 381.862 244.441 382.033 244.479 382.198C244.53 382.363 244.581 382.554 244.631 382.77C244.936 383.76 245.552 385.639 246.479 388.406C247.405 391.174 248.548 394.608 249.906 398.708L256.057 379.018H260.094L267.235 399.318C268.289 396.055 269.127 393.389 269.749 391.32C270.384 389.25 270.917 387.479 271.349 386.007C271.603 385.105 271.806 384.35 271.958 383.741C272.11 383.131 272.187 382.604 272.187 382.16C272.187 381.894 272.06 381.665 271.806 381.475C271.564 381.284 271.234 381.119 270.815 380.979C270.46 380.865 269.997 380.776 269.425 380.713C268.867 380.637 268.378 380.58 267.959 380.542V379.018H278.833V380.542ZM299.704 401.489C299.259 402.212 298.72 402.898 298.085 403.545C297.463 404.18 296.752 404.726 295.952 405.183C295.102 405.666 294.238 406.027 293.362 406.269C292.499 406.522 291.502 406.649 290.373 406.649C288.494 406.649 286.869 406.383 285.498 405.85C284.139 405.316 283.016 404.599 282.127 403.698C281.238 402.796 280.572 401.736 280.127 400.518C279.696 399.286 279.48 397.953 279.48 396.519C279.48 395.224 279.715 393.986 280.185 392.805C280.667 391.612 281.346 390.552 282.222 389.625C283.085 388.724 284.171 387.994 285.479 387.435C286.799 386.876 288.271 386.597 289.896 386.597C291.674 386.597 293.134 386.813 294.276 387.245C295.419 387.676 296.365 388.273 297.114 389.035C297.837 389.758 298.364 390.615 298.694 391.605C299.024 392.583 299.189 393.611 299.189 394.69V395.928H286.316C286.316 398.531 286.818 400.511 287.821 401.87C288.824 403.228 290.417 403.907 292.601 403.907C293.794 403.907 294.867 403.583 295.819 402.936C296.771 402.276 297.583 401.444 298.256 400.441L299.704 401.489ZM292.429 394.252C292.429 393.491 292.391 392.71 292.315 391.91C292.239 391.11 292.105 390.457 291.915 389.949C291.699 389.352 291.401 388.901 291.02 388.597C290.652 388.292 290.182 388.14 289.611 388.14C288.633 388.14 287.853 388.635 287.269 389.625C286.685 390.615 286.367 392.183 286.316 394.329L292.429 394.252ZM320.518 390.634C320.518 391.599 320.219 392.45 319.623 393.186C319.026 393.91 318.239 394.271 317.261 394.271C316.334 394.271 315.547 394.037 314.9 393.567C314.265 393.097 313.948 392.405 313.948 391.491C313.948 391.047 313.979 390.704 314.043 390.463C314.106 390.209 314.164 389.974 314.214 389.758C313.63 389.784 313.015 389.987 312.367 390.368C311.72 390.749 311.148 391.256 310.653 391.891V402.346C310.653 402.79 310.723 403.158 310.863 403.45C311.002 403.742 311.237 403.971 311.567 404.136C311.847 404.275 312.297 404.396 312.919 404.498C313.554 404.586 314.011 404.637 314.291 404.65V406.04H301.551V404.65C301.868 404.625 302.186 404.593 302.503 404.555C302.833 404.504 303.112 404.44 303.341 404.364C303.747 404.225 304.026 404.009 304.179 403.717C304.331 403.425 304.407 403.044 304.407 402.574V391.491C304.407 391.034 304.299 390.628 304.083 390.272C303.868 389.904 303.607 389.612 303.303 389.396C303.074 389.244 302.782 389.117 302.427 389.016C302.084 388.914 301.703 388.844 301.284 388.806V387.416L310.368 386.921L310.653 387.207V389.968H310.729C311.605 388.952 312.532 388.159 313.51 387.587C314.5 387.003 315.528 386.711 316.595 386.711C317.775 386.711 318.721 387.08 319.432 387.816C320.156 388.54 320.518 389.479 320.518 390.634ZM346.283 406.04H337.313C336.209 404.098 335.2 402.454 334.286 401.108C333.372 399.75 332.508 398.493 331.696 397.337L330.553 398.309V402.46C330.553 402.917 330.617 403.292 330.744 403.583C330.883 403.875 331.144 404.091 331.524 404.231C331.753 404.333 332.02 404.421 332.324 404.498C332.629 404.574 332.934 404.625 333.238 404.65V406.04H321.451V404.65C321.768 404.625 322.085 404.593 322.403 404.555C322.72 404.504 323 404.44 323.241 404.364C323.647 404.225 323.92 404.009 324.06 403.717C324.212 403.425 324.288 403.044 324.288 402.574V381.341C324.288 380.922 324.193 380.491 324.002 380.046C323.825 379.589 323.558 379.247 323.203 379.018C322.961 378.866 322.6 378.739 322.117 378.637C321.635 378.536 321.197 378.472 320.803 378.447V377.057L330.268 376.562L330.553 376.866V396.519C331.493 395.681 332.546 394.709 333.714 393.605C334.895 392.5 335.841 391.586 336.552 390.863C336.971 390.431 337.199 390.107 337.237 389.892C337.288 389.663 337.313 389.523 337.313 389.473C337.313 389.244 337.11 389.054 336.704 388.901C336.311 388.749 335.714 388.616 334.914 388.501V387.149H344.588V388.463C343.318 388.819 342.347 389.155 341.674 389.473C341.014 389.777 340.291 390.19 339.503 390.71C338.983 391.053 338.475 391.415 337.98 391.796C337.498 392.164 336.939 392.627 336.304 393.186C337.548 394.989 338.697 396.658 339.751 398.194C340.805 399.73 341.909 401.355 343.064 403.069C343.458 403.666 343.947 404.066 344.531 404.269C345.115 404.472 345.699 404.599 346.283 404.65V406.04ZM366.963 401.489C366.519 402.212 365.979 402.898 365.345 403.545C364.723 404.18 364.012 404.726 363.212 405.183C362.361 405.666 361.498 406.027 360.622 406.269C359.759 406.522 358.762 406.649 357.632 406.649C355.753 406.649 354.128 406.383 352.757 405.85C351.399 405.316 350.275 404.599 349.387 403.698C348.498 402.796 347.832 401.736 347.387 400.518C346.956 399.286 346.74 397.953 346.74 396.519C346.74 395.224 346.975 393.986 347.444 392.805C347.927 391.612 348.606 390.552 349.482 389.625C350.345 388.724 351.431 387.994 352.738 387.435C354.059 386.876 355.531 386.597 357.156 386.597C358.934 386.597 360.394 386.813 361.536 387.245C362.679 387.676 363.625 388.273 364.374 389.035C365.097 389.758 365.624 390.615 365.954 391.605C366.284 392.583 366.449 393.611 366.449 394.69V395.928H353.576C353.576 398.531 354.078 400.511 355.081 401.87C356.083 403.228 357.677 403.907 359.86 403.907C361.054 403.907 362.126 403.583 363.079 402.936C364.031 402.276 364.843 401.444 365.516 400.441L366.963 401.489ZM359.689 394.252C359.689 393.491 359.651 392.71 359.575 391.91C359.499 391.11 359.365 390.457 359.175 389.949C358.959 389.352 358.661 388.901 358.28 388.597C357.912 388.292 357.442 388.14 356.871 388.14C355.893 388.14 355.112 388.635 354.528 389.625C353.944 390.615 353.627 392.183 353.576 394.329L359.689 394.252Z" fill="#FFF6DC"/>
<path fill-rule="evenodd" clip-rule="evenodd" d="M744.08 368.42L608 368.42V369.42L741.92 369.42L741.92 664.84H742.92L742.92 369.42H744.08V368.42Z" fill="#FFCC00"/>
<path d="M546.015 360.5H530.304V359.053C530.685 359.027 531.288 358.964 532.113 358.862C532.951 358.761 533.522 358.659 533.827 358.558C534.208 358.431 534.506 358.215 534.722 357.91C534.938 357.605 535.046 357.187 535.046 356.653V344.58H530.228V342.771H531.275C532.38 342.771 533.332 342.65 534.132 342.409C534.944 342.168 535.617 341.876 536.15 341.533C536.696 341.178 537.141 340.81 537.483 340.429C537.839 340.048 538.118 339.711 538.321 339.419H541.673C541.635 340.245 541.597 341.209 541.559 342.314C541.521 343.418 541.501 344.409 541.501 345.285V356.444C541.501 356.901 541.597 357.301 541.787 357.644C541.99 357.974 542.276 358.228 542.644 358.405C542.974 358.558 543.526 358.697 544.301 358.824C545.075 358.951 545.646 359.027 546.015 359.053V360.5ZM565.477 351.474C566.429 352.108 567.229 352.965 567.876 354.044C568.523 355.111 568.847 356.438 568.847 358.024C568.847 360.817 567.762 363.096 565.591 364.861C563.433 366.638 560.671 367.527 557.307 367.527C554.705 367.527 552.534 366.968 550.794 365.851C549.055 364.734 548.186 363.414 548.186 361.89C548.186 360.989 548.471 360.227 549.042 359.605C549.626 358.983 550.401 358.672 551.366 358.672C552.369 358.672 553.188 358.945 553.822 359.491C554.47 360.024 554.793 360.741 554.793 361.643C554.793 362.277 554.686 362.969 554.47 363.718C554.254 364.467 554.076 365.039 553.937 365.432C554.241 365.546 554.597 365.629 555.003 365.68C555.409 365.743 555.79 365.775 556.146 365.775C556.869 365.775 557.58 365.61 558.278 365.28C558.977 364.962 559.573 364.493 560.068 363.871C560.64 363.16 561.071 362.315 561.363 361.338C561.655 360.373 561.801 359.275 561.801 358.043C561.801 356.253 561.319 354.787 560.354 353.645C559.402 352.489 558.164 351.912 556.641 351.912C555.46 351.912 554.47 352.153 553.67 352.635C552.87 353.105 552.153 353.727 551.518 354.501L550.033 354.006L551.88 339.991H567.971V345.247H553.251L552.47 351.531C553.156 351.099 554.038 350.687 555.117 350.293C556.196 349.899 557.466 349.703 558.926 349.703C560.056 349.703 561.167 349.83 562.258 350.083C563.363 350.325 564.436 350.788 565.477 351.474ZM588.519 360.5H572.808V359.053C573.189 359.027 573.792 358.964 574.617 358.862C575.455 358.761 576.026 358.659 576.331 358.558C576.712 358.431 577.01 358.215 577.226 357.91C577.442 357.605 577.55 357.187 577.55 356.653V344.58H572.732V342.771H573.779C574.884 342.771 575.836 342.65 576.636 342.409C577.448 342.168 578.121 341.876 578.654 341.533C579.2 341.178 579.645 340.81 579.987 340.429C580.343 340.048 580.622 339.711 580.825 339.419H584.177C584.139 340.245 584.101 341.209 584.062 342.314C584.024 343.418 584.005 344.409 584.005 345.285V356.444C584.005 356.901 584.101 357.301 584.291 357.644C584.494 357.974 584.78 358.228 585.148 358.405C585.478 358.558 586.03 358.697 586.805 358.824C587.579 358.951 588.15 359.027 588.519 359.053V360.5ZM607.638 360.5H591.927V359.053C592.308 359.027 592.911 358.964 593.736 358.862C594.574 358.761 595.146 358.659 595.45 358.558C595.831 358.431 596.129 358.215 596.345 357.91C596.561 357.605 596.669 357.187 596.669 356.653V344.58H591.851V342.771H592.898C594.003 342.771 594.955 342.65 595.755 342.409C596.567 342.168 597.24 341.876 597.773 341.533C598.319 341.178 598.764 340.81 599.106 340.429C599.462 340.048 599.741 339.711 599.944 339.419H603.296C603.258 340.245 603.22 341.209 603.182 342.314C603.144 343.418 603.125 344.409 603.125 345.285V356.444C603.125 356.901 603.22 357.301 603.41 357.644C603.613 357.974 603.899 358.228 604.267 358.405C604.597 358.558 605.149 358.697 605.924 358.824C606.698 358.951 607.27 359.027 607.638 359.053V360.5ZM631.803 352.216H620.263V348.008H631.803V352.216ZM661.339 360.5H645.628V359.053C646.009 359.027 646.612 358.964 647.438 358.862C648.275 358.761 648.847 358.659 649.151 358.558C649.532 358.431 649.831 358.215 650.046 357.91C650.262 357.605 650.37 357.187 650.37 356.653V344.58H645.552V342.771H646.6C647.704 342.771 648.656 342.65 649.456 342.409C650.269 342.168 650.941 341.876 651.475 341.533C652.021 341.178 652.465 340.81 652.808 340.429C653.163 340.048 653.442 339.711 653.646 339.419H656.997C656.959 340.245 656.921 341.209 656.883 342.314C656.845 343.418 656.826 344.409 656.826 345.285V356.444C656.826 356.901 656.921 357.301 657.111 357.644C657.314 357.974 657.6 358.228 657.968 358.405C658.298 358.558 658.851 358.697 659.625 358.824C660.399 358.951 660.971 359.027 661.339 359.053V360.5ZM680.801 351.474C681.753 352.108 682.553 352.965 683.2 354.044C683.848 355.111 684.171 356.438 684.171 358.024C684.171 360.817 683.086 363.096 680.915 364.861C678.757 366.638 675.996 367.527 672.631 367.527C670.029 367.527 667.858 366.968 666.119 365.851C664.379 364.734 663.51 363.414 663.51 361.89C663.51 360.989 663.795 360.227 664.367 359.605C664.951 358.983 665.725 358.672 666.69 358.672C667.693 358.672 668.512 358.945 669.146 359.491C669.794 360.024 670.118 360.741 670.118 361.643C670.118 362.277 670.01 362.969 669.794 363.718C669.578 364.467 669.4 365.039 669.261 365.432C669.565 365.546 669.921 365.629 670.327 365.68C670.733 365.743 671.114 365.775 671.47 365.775C672.193 365.775 672.904 365.61 673.603 365.28C674.301 364.962 674.897 364.493 675.393 363.871C675.964 363.16 676.396 362.315 676.688 361.338C676.979 360.373 677.125 359.275 677.125 358.043C677.125 356.253 676.643 354.787 675.678 353.645C674.726 352.489 673.488 351.912 671.965 351.912C670.784 351.912 669.794 352.153 668.994 352.635C668.194 353.105 667.477 353.727 666.842 354.501L665.357 354.006L667.204 339.991H683.295V345.247H668.575L667.794 351.531C668.48 351.099 669.362 350.687 670.441 350.293C671.521 349.899 672.79 349.703 674.25 349.703C675.38 349.703 676.491 349.83 677.583 350.083C678.687 350.325 679.76 350.788 680.801 351.474ZM708.565 360.5H687.923V357.053C688.824 356.139 689.808 355.308 690.875 354.559C691.954 353.797 693.045 353.124 694.15 352.54C695.331 351.918 696.321 351.366 697.121 350.883C697.92 350.388 698.549 349.874 699.006 349.341C699.463 348.846 699.787 348.306 699.977 347.722C700.18 347.138 700.282 346.484 700.282 345.761C700.282 344.148 699.901 342.974 699.139 342.238C698.377 341.501 697.368 341.133 696.111 341.133C695.718 341.133 695.343 341.165 694.988 341.229C694.645 341.279 694.283 341.381 693.902 341.533C694.093 342.104 694.277 342.695 694.455 343.304C694.632 343.914 694.721 344.593 694.721 345.342C694.721 346.243 694.397 346.96 693.75 347.494C693.103 348.027 692.277 348.293 691.274 348.293C690.322 348.293 689.561 347.982 688.989 347.36C688.431 346.738 688.151 345.983 688.151 345.094C688.151 343.545 689.053 342.206 690.855 341.076C692.658 339.946 694.854 339.381 697.444 339.381C700.44 339.381 702.859 339.896 704.7 340.924C706.553 341.952 707.48 343.609 707.48 345.894C707.48 347.075 707.232 348.027 706.737 348.75C706.255 349.474 705.538 350.109 704.585 350.655C703.735 351.15 702.789 351.556 701.748 351.874C700.72 352.191 699.615 352.496 698.435 352.788C697.178 353.105 696.08 353.441 695.14 353.797C694.213 354.152 693.388 354.578 692.665 355.073V355.282H708.565V360.5ZM732.826 342.752C733.791 343.768 734.502 344.929 734.959 346.237C735.429 347.532 735.664 348.877 735.664 350.274C735.664 351.937 735.372 353.441 734.788 354.787C734.216 356.12 733.429 357.25 732.426 358.177C731.373 359.142 730.147 359.878 728.751 360.386C727.354 360.894 725.749 361.147 723.933 361.147C722.016 361.147 720.321 360.849 718.849 360.252C717.389 359.656 716.17 358.869 715.192 357.891C714.228 356.926 713.491 355.79 712.983 354.482C712.488 353.175 712.241 351.772 712.241 350.274C712.241 348.789 712.476 347.411 712.945 346.142C713.428 344.872 714.164 343.723 715.154 342.695C716.119 341.692 717.344 340.892 718.83 340.295C720.315 339.686 722.022 339.381 723.952 339.381C725.945 339.381 727.685 339.692 729.17 340.314C730.655 340.937 731.874 341.749 732.826 342.752ZM727.456 356.939C727.824 356.088 728.084 355.143 728.237 354.102C728.402 353.048 728.484 351.772 728.484 350.274C728.484 348.928 728.408 347.716 728.256 346.637C728.116 345.558 727.875 344.599 727.532 343.761C727.177 342.898 726.707 342.231 726.123 341.762C725.539 341.292 724.822 341.057 723.971 341.057C723.108 341.057 722.384 341.292 721.8 341.762C721.216 342.219 720.74 342.873 720.372 343.723C720.042 344.498 719.801 345.45 719.648 346.58C719.496 347.697 719.42 348.928 719.42 350.274C719.42 351.683 719.483 352.883 719.61 353.873C719.75 354.863 719.998 355.815 720.353 356.729C720.67 357.555 721.127 358.221 721.724 358.729C722.321 359.237 723.057 359.491 723.933 359.491C724.746 359.491 725.45 359.262 726.047 358.805C726.644 358.348 727.113 357.726 727.456 356.939Z" fill="#FFCC00"/>
<path d="M545.614 405.85H541.52V413.067H535.14V405.85H522.534V402.346L536.207 385.036H541.52V401.832H545.614V405.85ZM535.14 401.832V389.587L525.447 401.832H535.14ZM569.475 388.292C570.439 389.308 571.15 390.469 571.607 391.777C572.077 393.072 572.312 394.417 572.312 395.814C572.312 397.477 572.02 398.981 571.436 400.327C570.865 401.66 570.078 402.79 569.075 403.717C568.021 404.682 566.796 405.418 565.399 405.926C564.003 406.434 562.397 406.688 560.582 406.688C558.665 406.688 556.97 406.389 555.497 405.792C554.037 405.196 552.818 404.409 551.841 403.431C550.876 402.466 550.14 401.33 549.632 400.022C549.137 398.715 548.889 397.312 548.889 395.814C548.889 394.329 549.124 392.951 549.594 391.682C550.076 390.412 550.812 389.263 551.803 388.235C552.768 387.232 553.993 386.432 555.478 385.835C556.963 385.226 558.671 384.921 560.601 384.921C562.594 384.921 564.333 385.232 565.818 385.854C567.304 386.477 568.522 387.289 569.475 388.292ZM564.104 402.479C564.473 401.628 564.733 400.683 564.885 399.642C565.05 398.588 565.133 397.312 565.133 395.814C565.133 394.468 565.057 393.256 564.904 392.177C564.765 391.098 564.523 390.139 564.181 389.301C563.825 388.438 563.355 387.771 562.771 387.302C562.188 386.832 561.47 386.597 560.62 386.597C559.756 386.597 559.033 386.832 558.449 387.302C557.865 387.759 557.389 388.413 557.021 389.263C556.69 390.038 556.449 390.99 556.297 392.12C556.145 393.237 556.068 394.468 556.068 395.814C556.068 397.223 556.132 398.423 556.259 399.413C556.398 400.403 556.646 401.355 557.001 402.27C557.319 403.095 557.776 403.761 558.373 404.269C558.969 404.777 559.706 405.031 560.582 405.031C561.394 405.031 562.099 404.802 562.695 404.345C563.292 403.888 563.762 403.266 564.104 402.479ZM592.288 406.04H576.578V404.593C576.958 404.567 577.562 404.504 578.387 404.402C579.225 404.301 579.796 404.199 580.101 404.098C580.481 403.971 580.78 403.755 580.996 403.45C581.211 403.146 581.319 402.727 581.319 402.193V390.12H576.501V388.311H577.549C578.653 388.311 579.605 388.19 580.405 387.949C581.218 387.708 581.891 387.416 582.424 387.073C582.97 386.718 583.414 386.35 583.757 385.969C584.112 385.588 584.392 385.251 584.595 384.959H587.946C587.908 385.785 587.87 386.75 587.832 387.854C587.794 388.958 587.775 389.949 587.775 390.825V401.984C587.775 402.441 587.87 402.841 588.061 403.184C588.264 403.514 588.549 403.768 588.917 403.945C589.248 404.098 589.8 404.237 590.574 404.364C591.349 404.491 591.92 404.567 592.288 404.593V406.04ZM647.951 380.542C647.557 380.58 647.164 380.668 646.77 380.808C646.376 380.935 645.989 381.1 645.608 381.303C645.024 381.633 644.605 381.995 644.352 382.389C644.11 382.782 643.888 383.258 643.685 383.817C642.987 385.747 641.908 388.838 640.448 393.091C639 397.344 637.49 401.762 635.916 406.345H632.088L624.947 386.254L618.51 406.345H614.683C612.562 400.175 610.938 395.427 609.808 392.101C608.678 388.762 607.726 385.962 606.951 383.703C606.71 383.017 606.437 382.522 606.132 382.217C605.828 381.9 605.434 381.583 604.952 381.265C604.609 381.037 604.241 380.872 603.847 380.77C603.466 380.656 603.022 380.567 602.514 380.503V379.018H616.93V380.465C616.079 380.567 615.444 380.668 615.025 380.77C614.606 380.859 614.276 380.954 614.035 381.056C613.807 381.157 613.667 381.265 613.616 381.379C613.565 381.494 613.54 381.595 613.54 381.684C613.54 381.862 613.559 382.033 613.597 382.198C613.648 382.363 613.699 382.554 613.75 382.77C614.054 383.76 614.67 385.639 615.597 388.406C616.523 391.174 617.666 394.608 619.024 398.708L625.175 379.018H629.212L636.354 399.318C637.407 396.055 638.245 393.389 638.867 391.32C639.502 389.25 640.035 387.479 640.467 386.007C640.721 385.105 640.924 384.35 641.076 383.741C641.229 383.131 641.305 382.604 641.305 382.16C641.305 381.894 641.178 381.665 640.924 381.475C640.683 381.284 640.353 381.119 639.934 380.979C639.578 380.865 639.115 380.776 638.543 380.713C637.985 380.637 637.496 380.58 637.077 380.542V379.018H647.951V380.542ZM668.822 401.489C668.377 402.212 667.838 402.898 667.203 403.545C666.581 404.18 665.87 404.726 665.07 405.183C664.22 405.666 663.356 406.027 662.48 406.269C661.617 406.522 660.621 406.649 659.491 406.649C657.612 406.649 655.987 406.383 654.616 405.85C653.257 405.316 652.134 404.599 651.245 403.698C650.356 402.796 649.69 401.736 649.246 400.518C648.814 399.286 648.598 397.953 648.598 396.519C648.598 395.224 648.833 393.986 649.303 392.805C649.785 391.612 650.464 390.552 651.34 389.625C652.204 388.724 653.289 387.994 654.597 387.435C655.917 386.876 657.39 386.597 659.015 386.597C660.792 386.597 662.252 386.813 663.395 387.245C664.537 387.676 665.483 388.273 666.232 389.035C666.956 389.758 667.482 390.615 667.812 391.605C668.143 392.583 668.308 393.611 668.308 394.69V395.928H655.435C655.435 398.531 655.936 400.511 656.939 401.87C657.942 403.228 659.535 403.907 661.719 403.907C662.912 403.907 663.985 403.583 664.937 402.936C665.889 402.276 666.702 401.444 667.375 400.441L668.822 401.489ZM661.547 394.252C661.547 393.491 661.509 392.71 661.433 391.91C661.357 391.11 661.224 390.457 661.033 389.949C660.817 389.352 660.519 388.901 660.138 388.597C659.77 388.292 659.3 388.14 658.729 388.14C657.751 388.14 656.971 388.635 656.387 389.625C655.803 390.615 655.485 392.183 655.435 394.329L661.547 394.252ZM689.636 390.634C689.636 391.599 689.337 392.45 688.741 393.186C688.144 393.91 687.357 394.271 686.379 394.271C685.453 394.271 684.666 394.037 684.018 393.567C683.383 393.097 683.066 392.405 683.066 391.491C683.066 391.047 683.098 390.704 683.161 390.463C683.225 390.209 683.282 389.974 683.333 389.758C682.749 389.784 682.133 389.987 681.485 390.368C680.838 390.749 680.267 391.256 679.771 391.891V402.346C679.771 402.79 679.841 403.158 679.981 403.45C680.121 403.742 680.355 403.971 680.686 404.136C680.965 404.275 681.416 404.396 682.038 404.498C682.672 404.586 683.129 404.637 683.409 404.65V406.04H670.669V404.65C670.986 404.625 671.304 404.593 671.621 404.555C671.951 404.504 672.23 404.44 672.459 404.364C672.865 404.225 673.145 404.009 673.297 403.717C673.449 403.425 673.525 403.044 673.525 402.574V391.491C673.525 391.034 673.417 390.628 673.202 390.272C672.986 389.904 672.726 389.612 672.421 389.396C672.192 389.244 671.9 389.117 671.545 389.016C671.202 388.914 670.821 388.844 670.402 388.806V387.416L679.486 386.921L679.771 387.207V389.968H679.848C680.724 388.952 681.65 388.159 682.628 387.587C683.618 387.003 684.646 386.711 685.713 386.711C686.894 386.711 687.839 387.08 688.55 387.816C689.274 388.54 689.636 389.479 689.636 390.634ZM715.401 406.04H706.432C705.327 404.098 704.318 402.454 703.404 401.108C702.49 399.75 701.626 398.493 700.814 397.337L699.671 398.309V402.46C699.671 402.917 699.735 403.292 699.862 403.583C700.001 403.875 700.262 404.091 700.643 404.231C700.871 404.333 701.138 404.421 701.442 404.498C701.747 404.574 702.052 404.625 702.356 404.65V406.04H690.569V404.65C690.886 404.625 691.204 404.593 691.521 404.555C691.838 404.504 692.118 404.44 692.359 404.364C692.765 404.225 693.038 404.009 693.178 403.717C693.33 403.425 693.406 403.044 693.406 402.574V381.341C693.406 380.922 693.311 380.491 693.121 380.046C692.943 379.589 692.676 379.247 692.321 379.018C692.08 378.866 691.718 378.739 691.235 378.637C690.753 378.536 690.315 378.472 689.921 378.447V377.057L699.386 376.562L699.671 376.866V396.519C700.611 395.681 701.665 394.709 702.833 393.605C704.013 392.5 704.959 391.586 705.67 390.863C706.089 390.431 706.317 390.107 706.355 389.892C706.406 389.663 706.432 389.523 706.432 389.473C706.432 389.244 706.229 389.054 705.822 388.901C705.429 388.749 704.832 388.616 704.032 388.501V387.149H713.706V388.463C712.437 388.819 711.465 389.155 710.792 389.473C710.132 389.777 709.409 390.19 708.622 390.71C708.101 391.053 707.593 391.415 707.098 391.796C706.616 392.164 706.057 392.627 705.422 393.186C706.667 394.989 707.815 396.658 708.869 398.194C709.923 399.73 711.027 401.355 712.183 403.069C712.576 403.666 713.065 404.066 713.649 404.269C714.233 404.472 714.817 404.599 715.401 404.65V406.04ZM736.082 401.489C735.637 402.212 735.098 402.898 734.463 403.545C733.841 404.18 733.13 404.726 732.33 405.183C731.479 405.666 730.616 406.027 729.74 406.269C728.877 406.522 727.88 406.649 726.75 406.649C724.872 406.649 723.247 406.383 721.875 405.85C720.517 405.316 719.394 404.599 718.505 403.698C717.616 402.796 716.95 401.736 716.505 400.518C716.074 399.286 715.858 397.953 715.858 396.519C715.858 395.224 716.093 393.986 716.562 392.805C717.045 391.612 717.724 390.552 718.6 389.625C719.463 388.724 720.549 387.994 721.856 387.435C723.177 386.876 724.649 386.597 726.274 386.597C728.052 386.597 729.512 386.813 730.654 387.245C731.797 387.676 732.743 388.273 733.492 389.035C734.215 389.758 734.742 390.615 735.072 391.605C735.402 392.583 735.567 393.611 735.567 394.69V395.928H722.694C722.694 398.531 723.196 400.511 724.199 401.87C725.202 403.228 726.795 403.907 728.979 403.907C730.172 403.907 731.245 403.583 732.197 402.936C733.149 402.276 733.961 401.444 734.634 400.441L736.082 401.489ZM728.807 394.252C728.807 393.491 728.769 392.71 728.693 391.91C728.617 391.11 728.483 390.457 728.293 389.949C728.077 389.352 727.779 388.901 727.398 388.597C727.03 388.292 726.56 388.14 725.989 388.14C725.011 388.14 724.23 388.635 723.646 389.625C723.062 390.615 722.745 392.183 722.694 394.329L728.807 394.252Z" fill="#FFF6DC"/>
<path fill-rule="evenodd" clip-rule="evenodd" d="M1113.08 368.42L977 368.42V369.42L1110.92 369.42L1110.92 664.84H1111.92L1111.92 369.42H1113.08V368.42Z" fill="#FFCC00"/>
<path d="M910.015 360.5H894.304V359.053C894.685 359.027 895.288 358.964 896.113 358.862C896.951 358.761 897.522 358.659 897.827 358.558C898.208 358.431 898.506 358.215 898.722 357.91C898.938 357.605 899.046 357.187 899.046 356.653V344.58H894.228V342.771H895.275C896.38 342.771 897.332 342.65 898.132 342.409C898.944 342.168 899.617 341.876 900.15 341.533C900.696 341.178 901.141 340.81 901.483 340.429C901.839 340.048 902.118 339.711 902.321 339.419H905.673C905.635 340.245 905.597 341.209 905.559 342.314C905.521 343.418 905.501 344.409 905.501 345.285V356.444C905.501 356.901 905.597 357.301 905.787 357.644C905.99 357.974 906.276 358.228 906.644 358.405C906.974 358.558 907.526 358.697 908.301 358.824C909.075 358.951 909.646 359.027 910.015 359.053V360.5ZM929.477 351.474C930.429 352.108 931.229 352.965 931.876 354.044C932.523 355.111 932.847 356.438 932.847 358.024C932.847 360.817 931.762 363.096 929.591 364.861C927.433 366.638 924.671 367.527 921.307 367.527C918.705 367.527 916.534 366.968 914.794 365.851C913.055 364.734 912.186 363.414 912.186 361.89C912.186 360.989 912.471 360.227 913.042 359.605C913.626 358.983 914.401 358.672 915.366 358.672C916.369 358.672 917.188 358.945 917.822 359.491C918.47 360.024 918.793 360.741 918.793 361.643C918.793 362.277 918.686 362.969 918.47 363.718C918.254 364.467 918.076 365.039 917.937 365.432C918.241 365.546 918.597 365.629 919.003 365.68C919.409 365.743 919.79 365.775 920.146 365.775C920.869 365.775 921.58 365.61 922.278 365.28C922.977 364.962 923.573 364.493 924.068 363.871C924.64 363.16 925.071 362.315 925.363 361.338C925.655 360.373 925.801 359.275 925.801 358.043C925.801 356.253 925.319 354.787 924.354 353.645C923.402 352.489 922.164 351.912 920.641 351.912C919.46 351.912 918.47 352.153 917.67 352.635C916.87 353.105 916.153 353.727 915.518 354.501L914.033 354.006L915.88 339.991H931.971V345.247H917.251L916.47 351.531C917.156 351.099 918.038 350.687 919.117 350.293C920.196 349.899 921.466 349.703 922.926 349.703C924.056 349.703 925.167 349.83 926.258 350.083C927.363 350.325 928.436 350.788 929.477 351.474ZM957.241 360.5H936.599V357.053C937.5 356.139 938.484 355.308 939.55 354.559C940.629 353.797 941.721 353.124 942.826 352.54C944.006 351.918 944.997 351.366 945.796 350.883C946.596 350.388 947.225 349.874 947.682 349.341C948.139 348.846 948.462 348.306 948.653 347.722C948.856 347.138 948.958 346.484 948.958 345.761C948.958 344.148 948.577 342.974 947.815 342.238C947.053 341.501 946.044 341.133 944.787 341.133C944.394 341.133 944.019 341.165 943.664 341.229C943.321 341.279 942.959 341.381 942.578 341.533C942.769 342.104 942.953 342.695 943.13 343.304C943.308 343.914 943.397 344.593 943.397 345.342C943.397 346.243 943.073 346.96 942.426 347.494C941.778 348.027 940.953 348.293 939.95 348.293C938.998 348.293 938.236 347.982 937.665 347.36C937.106 346.738 936.827 345.983 936.827 345.094C936.827 343.545 937.729 342.206 939.531 341.076C941.334 339.946 943.53 339.381 946.12 339.381C949.116 339.381 951.535 339.896 953.375 340.924C955.229 341.952 956.156 343.609 956.156 345.894C956.156 347.075 955.908 348.027 955.413 348.75C954.931 349.474 954.213 350.109 953.261 350.655C952.411 351.15 951.465 351.556 950.424 351.874C949.396 352.191 948.291 352.496 947.11 352.788C945.854 353.105 944.755 353.441 943.816 353.797C942.889 354.152 942.064 354.578 941.34 355.073V355.282H957.241V360.5ZM976.97 360.5H961.259V359.053C961.64 359.027 962.243 358.964 963.068 358.862C963.906 358.761 964.478 358.659 964.782 358.558C965.163 358.431 965.461 358.215 965.677 357.91C965.893 357.605 966.001 357.187 966.001 356.653V344.58H961.183V342.771H962.23C963.335 342.771 964.287 342.65 965.087 342.409C965.899 342.168 966.572 341.876 967.105 341.533C967.651 341.178 968.096 340.81 968.438 340.429C968.794 340.048 969.073 339.711 969.276 339.419H972.628C972.59 340.245 972.552 341.209 972.514 342.314C972.476 343.418 972.457 344.409 972.457 345.285V356.444C972.457 356.901 972.552 357.301 972.742 357.644C972.945 357.974 973.231 358.228 973.599 358.405C973.929 358.558 974.481 358.697 975.256 358.824C976.03 358.951 976.602 359.027 976.97 359.053V360.5ZM1001.14 352.216H989.595V348.008H1001.14V352.216ZM1030.67 360.5H1014.96V359.053C1015.34 359.027 1015.94 358.964 1016.77 358.862C1017.61 358.761 1018.18 358.659 1018.48 358.558C1018.86 358.431 1019.16 358.215 1019.38 357.91C1019.59 357.605 1019.7 357.187 1019.7 356.653V344.58H1014.88V342.771H1015.93C1017.04 342.771 1017.99 342.65 1018.79 342.409C1019.6 342.168 1020.27 341.876 1020.81 341.533C1021.35 341.178 1021.8 340.81 1022.14 340.429C1022.5 340.048 1022.77 339.711 1022.98 339.419H1026.33C1026.29 340.245 1026.25 341.209 1026.21 342.314C1026.18 343.418 1026.16 344.409 1026.16 345.285V356.444C1026.16 356.901 1026.25 357.301 1026.44 357.644C1026.65 357.974 1026.93 358.228 1027.3 358.405C1027.63 358.558 1028.18 358.697 1028.96 358.824C1029.73 358.951 1030.3 359.027 1030.67 359.053V360.5ZM1050.13 351.474C1051.08 352.108 1051.88 352.965 1052.53 354.044C1053.18 355.111 1053.5 356.438 1053.5 358.024C1053.5 360.817 1052.42 363.096 1050.25 364.861C1048.09 366.638 1045.33 367.527 1041.96 367.527C1039.36 367.527 1037.19 366.968 1035.45 365.851C1033.71 364.734 1032.84 363.414 1032.84 361.89C1032.84 360.989 1033.13 360.227 1033.7 359.605C1034.28 358.983 1035.06 358.672 1036.02 358.672C1037.02 358.672 1037.84 358.945 1038.48 359.491C1039.13 360.024 1039.45 360.741 1039.45 361.643C1039.45 362.277 1039.34 362.969 1039.13 363.718C1038.91 364.467 1038.73 365.039 1038.59 365.432C1038.9 365.546 1039.25 365.629 1039.66 365.68C1040.07 365.743 1040.45 365.775 1040.8 365.775C1041.53 365.775 1042.24 365.61 1042.93 365.28C1043.63 364.962 1044.23 364.493 1044.72 363.871C1045.3 363.16 1045.73 362.315 1046.02 361.338C1046.31 360.373 1046.46 359.275 1046.46 358.043C1046.46 356.253 1045.98 354.787 1045.01 353.645C1044.06 352.489 1042.82 351.912 1041.3 351.912C1040.12 351.912 1039.13 352.153 1038.33 352.635C1037.53 353.105 1036.81 353.727 1036.17 354.501L1034.69 354.006L1036.54 339.991H1052.63V345.247H1037.91L1037.13 351.531C1037.81 351.099 1038.69 350.687 1039.77 350.293C1040.85 349.899 1042.12 349.703 1043.58 349.703C1044.71 349.703 1045.82 349.83 1046.91 350.083C1048.02 350.325 1049.09 350.788 1050.13 351.474ZM1074.89 354.102C1075.65 354.609 1076.29 355.289 1076.79 356.139C1077.3 356.977 1077.55 358.012 1077.55 359.243C1077.55 361.617 1076.42 363.591 1074.15 365.166C1071.87 366.74 1068.95 367.527 1065.37 367.527C1062.8 367.527 1060.63 366.975 1058.84 365.87C1057.05 364.778 1056.15 363.433 1056.15 361.833C1056.15 360.932 1056.44 360.17 1057.01 359.548C1057.59 358.926 1058.37 358.615 1059.33 358.615C1060.33 358.615 1061.15 358.888 1061.79 359.434C1062.43 359.967 1062.76 360.684 1062.76 361.585C1062.76 362.208 1062.64 362.899 1062.42 363.661C1062.2 364.436 1062.03 365.007 1061.9 365.375C1062.18 365.502 1062.54 365.597 1062.99 365.661C1063.43 365.737 1063.95 365.775 1064.55 365.775C1065.28 365.775 1066 365.654 1066.7 365.413C1067.41 365.172 1068.03 364.778 1068.55 364.232C1069.09 363.661 1069.51 362.988 1069.8 362.214C1070.11 361.452 1070.26 360.437 1070.26 359.167C1070.26 358.443 1070.19 357.758 1070.05 357.11C1069.92 356.463 1069.68 355.898 1069.33 355.416C1068.97 354.933 1068.48 354.559 1067.86 354.292C1067.25 354.013 1066.47 353.873 1065.52 353.873H1063.1V351.569H1064.81C1066.41 351.569 1067.57 351.099 1068.28 350.16C1069 349.208 1069.37 347.76 1069.37 345.818C1069.37 344.256 1069.02 343.088 1068.32 342.314C1067.63 341.527 1066.64 341.133 1065.33 341.133C1064.83 341.133 1064.4 341.165 1064.03 341.229C1063.67 341.279 1063.29 341.381 1062.91 341.533C1063.05 341.965 1063.22 342.568 1063.42 343.342C1063.63 344.117 1063.73 344.777 1063.73 345.323C1063.73 346.224 1063.42 346.941 1062.8 347.475C1062.17 348.008 1061.36 348.274 1060.36 348.274C1059.41 348.274 1058.65 347.963 1058.07 347.341C1057.52 346.719 1057.24 345.964 1057.24 345.075C1057.24 343.501 1058.14 342.162 1059.96 341.057C1061.79 339.94 1064.08 339.381 1066.83 339.381C1068.74 339.381 1070.31 339.604 1071.56 340.048C1072.81 340.492 1073.8 341.038 1074.53 341.686C1075.24 342.32 1075.73 343.006 1075.99 343.742C1076.27 344.466 1076.41 345.12 1076.41 345.704C1076.41 346.262 1076.29 346.897 1076.05 347.608C1075.82 348.306 1075.48 348.922 1075.02 349.455C1074.46 350.103 1073.73 350.661 1072.83 351.131C1071.93 351.601 1070.88 351.962 1069.67 352.216V352.521C1070.5 352.572 1071.38 352.724 1072.34 352.978C1073.3 353.232 1074.15 353.606 1074.89 354.102ZM1102.08 342.752C1103.05 343.768 1103.76 344.929 1104.21 346.237C1104.68 347.532 1104.92 348.877 1104.92 350.274C1104.92 351.937 1104.63 353.441 1104.04 354.787C1103.47 356.12 1102.69 357.25 1101.68 358.177C1100.63 359.142 1099.4 359.878 1098.01 360.386C1096.61 360.894 1095 361.147 1093.19 361.147C1091.27 361.147 1089.58 360.849 1088.1 360.252C1086.64 359.656 1085.43 358.869 1084.45 357.891C1083.48 356.926 1082.75 355.79 1082.24 354.482C1081.74 353.175 1081.5 351.772 1081.5 350.274C1081.5 348.789 1081.73 347.411 1082.2 346.142C1082.68 344.872 1083.42 343.723 1084.41 342.695C1085.38 341.692 1086.6 340.892 1088.09 340.295C1089.57 339.686 1091.28 339.381 1093.21 339.381C1095.2 339.381 1096.94 339.692 1098.43 340.314C1099.91 340.937 1101.13 341.749 1102.08 342.752ZM1096.71 356.939C1097.08 356.088 1097.34 355.143 1097.49 354.102C1097.66 353.048 1097.74 351.772 1097.74 350.274C1097.74 348.928 1097.66 347.716 1097.51 346.637C1097.37 345.558 1097.13 344.599 1096.79 343.761C1096.43 342.898 1095.96 342.231 1095.38 341.762C1094.79 341.292 1094.08 341.057 1093.23 341.057C1092.36 341.057 1091.64 341.292 1091.06 341.762C1090.47 342.219 1090 342.873 1089.63 343.723C1089.3 344.498 1089.06 345.45 1088.9 346.58C1088.75 347.697 1088.68 348.928 1088.68 350.274C1088.68 351.683 1088.74 352.883 1088.87 353.873C1089.01 354.863 1089.25 355.815 1089.61 356.729C1089.93 357.555 1090.38 358.221 1090.98 358.729C1091.58 359.237 1092.31 359.491 1093.19 359.491C1094 359.491 1094.71 359.262 1095.3 358.805C1095.9 358.348 1096.37 357.726 1096.71 356.939Z" fill="#FFCC00"/>
<path d="M913.386 387.797L899.522 413.067H896.666L909.501 390.653H900.779C899.675 390.653 898.812 390.66 898.189 390.672C897.567 390.685 896.996 390.812 896.476 391.053C896.057 391.244 895.695 391.688 895.39 392.386C895.098 393.072 894.863 393.916 894.686 394.919H893.295V385.531H913.386V387.797ZM935.78 388.292C936.745 389.308 937.456 390.469 937.913 391.777C938.383 393.072 938.618 394.417 938.618 395.814C938.618 397.477 938.326 398.981 937.742 400.327C937.17 401.66 936.383 402.79 935.38 403.717C934.327 404.682 933.102 405.418 931.705 405.926C930.309 406.434 928.703 406.688 926.887 406.688C924.97 406.688 923.275 406.389 921.803 405.792C920.343 405.196 919.124 404.409 918.146 403.431C917.182 402.466 916.445 401.33 915.938 400.022C915.442 398.715 915.195 397.312 915.195 395.814C915.195 394.329 915.43 392.951 915.899 391.682C916.382 390.412 917.118 389.263 918.108 388.235C919.073 387.232 920.298 386.432 921.784 385.835C923.269 385.226 924.977 384.921 926.906 384.921C928.899 384.921 930.639 385.232 932.124 385.854C933.609 386.477 934.828 387.289 935.78 388.292ZM930.41 402.479C930.778 401.628 931.039 400.683 931.191 399.642C931.356 398.588 931.438 397.312 931.438 395.814C931.438 394.468 931.362 393.256 931.21 392.177C931.07 391.098 930.829 390.139 930.486 389.301C930.131 388.438 929.661 387.771 929.077 387.302C928.493 386.832 927.776 386.597 926.925 386.597C926.062 386.597 925.338 386.832 924.754 387.302C924.17 387.759 923.694 388.413 923.326 389.263C922.996 390.038 922.755 390.99 922.603 392.12C922.45 393.237 922.374 394.468 922.374 395.814C922.374 397.223 922.438 398.423 922.564 399.413C922.704 400.403 922.952 401.355 923.307 402.27C923.625 403.095 924.082 403.761 924.678 404.269C925.275 404.777 926.011 405.031 926.887 405.031C927.7 405.031 928.404 404.802 929.001 404.345C929.598 403.888 930.067 403.266 930.41 402.479ZM962.364 387.797L948.501 413.067H945.645L958.479 390.653H949.758C948.653 390.653 947.79 390.66 947.168 390.672C946.546 390.685 945.975 390.812 945.454 391.053C945.035 391.244 944.673 391.688 944.369 392.386C944.077 393.072 943.842 393.916 943.664 394.919H942.274V385.531H962.364V387.797ZM1016.77 380.542C1016.38 380.58 1015.98 380.668 1015.59 380.808C1015.2 380.935 1014.81 381.1 1014.43 381.303C1013.84 381.633 1013.42 381.995 1013.17 382.389C1012.93 382.782 1012.71 383.258 1012.5 383.817C1011.81 385.747 1010.73 388.838 1009.27 393.091C1007.82 397.344 1006.31 401.762 1004.73 406.345H1000.91L993.766 386.254L987.33 406.345H983.502C981.382 400.175 979.757 395.427 978.627 392.101C977.497 388.762 976.545 385.962 975.771 383.703C975.529 383.017 975.256 382.522 974.952 382.217C974.647 381.9 974.253 381.583 973.771 381.265C973.428 381.037 973.06 380.872 972.667 380.77C972.286 380.656 971.841 380.567 971.333 380.503V379.018H985.749V380.465C984.898 380.567 984.264 380.668 983.845 380.77C983.426 380.859 983.096 380.954 982.854 381.056C982.626 381.157 982.486 381.265 982.436 381.379C982.385 381.494 982.359 381.595 982.359 381.684C982.359 381.862 982.378 382.033 982.417 382.198C982.467 382.363 982.518 382.554 982.569 382.77C982.874 383.76 983.489 385.639 984.416 388.406C985.343 391.174 986.485 394.608 987.844 398.708L993.995 379.018H998.032L1005.17 399.318C1006.23 396.055 1007.06 393.389 1007.69 391.32C1008.32 389.25 1008.85 387.479 1009.29 386.007C1009.54 385.105 1009.74 384.35 1009.9 383.741C1010.05 383.131 1010.12 382.604 1010.12 382.16C1010.12 381.894 1010 381.665 1009.74 381.475C1009.5 381.284 1009.17 381.119 1008.75 380.979C1008.4 380.865 1007.93 380.776 1007.36 380.713C1006.8 380.637 1006.32 380.58 1005.9 380.542V379.018H1016.77V380.542ZM1037.64 401.489C1037.2 402.212 1036.66 402.898 1036.02 403.545C1035.4 404.18 1034.69 404.726 1033.89 405.183C1033.04 405.666 1032.18 406.027 1031.3 406.269C1030.44 406.522 1029.44 406.649 1028.31 406.649C1026.43 406.649 1024.81 406.383 1023.44 405.85C1022.08 405.316 1020.95 404.599 1020.06 403.698C1019.18 402.796 1018.51 401.736 1018.06 400.518C1017.63 399.286 1017.42 397.953 1017.42 396.519C1017.42 395.224 1017.65 393.986 1018.12 392.805C1018.6 391.612 1019.28 390.552 1020.16 389.625C1021.02 388.724 1022.11 387.994 1023.42 387.435C1024.74 386.876 1026.21 386.597 1027.83 386.597C1029.61 386.597 1031.07 386.813 1032.21 387.245C1033.36 387.676 1034.3 388.273 1035.05 389.035C1035.77 389.758 1036.3 390.615 1036.63 391.605C1036.96 392.583 1037.13 393.611 1037.13 394.69V395.928H1024.25C1024.25 398.531 1024.76 400.511 1025.76 401.87C1026.76 403.228 1028.35 403.907 1030.54 403.907C1031.73 403.907 1032.8 403.583 1033.76 402.936C1034.71 402.276 1035.52 401.444 1036.19 400.441L1037.64 401.489ZM1030.37 394.252C1030.37 393.491 1030.33 392.71 1030.25 391.91C1030.18 391.11 1030.04 390.457 1029.85 389.949C1029.64 389.352 1029.34 388.901 1028.96 388.597C1028.59 388.292 1028.12 388.14 1027.55 388.14C1026.57 388.14 1025.79 388.635 1025.21 389.625C1024.62 390.615 1024.3 392.183 1024.25 394.329L1030.37 394.252ZM1058.46 390.634C1058.46 391.599 1058.16 392.45 1057.56 393.186C1056.96 393.91 1056.18 394.271 1055.2 394.271C1054.27 394.271 1053.48 394.037 1052.84 393.567C1052.2 393.097 1051.89 392.405 1051.89 391.491C1051.89 391.047 1051.92 390.704 1051.98 390.463C1052.04 390.209 1052.1 389.974 1052.15 389.758C1051.57 389.784 1050.95 389.987 1050.3 390.368C1049.66 390.749 1049.09 391.256 1048.59 391.891V402.346C1048.59 402.79 1048.66 403.158 1048.8 403.45C1048.94 403.742 1049.17 403.971 1049.5 404.136C1049.78 404.275 1050.23 404.396 1050.86 404.498C1051.49 404.586 1051.95 404.637 1052.23 404.65V406.04H1039.49V404.65C1039.81 404.625 1040.12 404.593 1040.44 404.555C1040.77 404.504 1041.05 404.44 1041.28 404.364C1041.68 404.225 1041.96 404.009 1042.12 403.717C1042.27 403.425 1042.34 403.044 1042.34 402.574V391.491C1042.34 391.034 1042.24 390.628 1042.02 390.272C1041.81 389.904 1041.54 389.612 1041.24 389.396C1041.01 389.244 1040.72 389.117 1040.36 389.016C1040.02 388.914 1039.64 388.844 1039.22 388.806V387.416L1048.31 386.921L1048.59 387.207V389.968H1048.67C1049.54 388.952 1050.47 388.159 1051.45 387.587C1052.44 387.003 1053.47 386.711 1054.53 386.711C1055.71 386.711 1056.66 387.08 1057.37 387.816C1058.09 388.54 1058.46 389.479 1058.46 390.634ZM1084.22 406.04H1075.25C1074.15 404.098 1073.14 402.454 1072.22 401.108C1071.31 399.75 1070.45 398.493 1069.63 397.337L1068.49 398.309V402.46C1068.49 402.917 1068.55 403.292 1068.68 403.583C1068.82 403.875 1069.08 404.091 1069.46 404.231C1069.69 404.333 1069.96 404.421 1070.26 404.498C1070.57 404.574 1070.87 404.625 1071.18 404.65V406.04H1059.39V404.65C1059.71 404.625 1060.02 404.593 1060.34 404.555C1060.66 404.504 1060.94 404.44 1061.18 404.364C1061.58 404.225 1061.86 404.009 1062 403.717C1062.15 403.425 1062.23 403.044 1062.23 402.574V381.341C1062.23 380.922 1062.13 380.491 1061.94 380.046C1061.76 379.589 1061.5 379.247 1061.14 379.018C1060.9 378.866 1060.54 378.739 1060.05 378.637C1059.57 378.536 1059.13 378.472 1058.74 378.447V377.057L1068.21 376.562L1068.49 376.866V396.519C1069.43 395.681 1070.48 394.709 1071.65 393.605C1072.83 392.5 1073.78 391.586 1074.49 390.863C1074.91 390.431 1075.14 390.107 1075.17 389.892C1075.23 389.663 1075.25 389.523 1075.25 389.473C1075.25 389.244 1075.05 389.054 1074.64 388.901C1074.25 388.749 1073.65 388.616 1072.85 388.501V387.149H1082.53V388.463C1081.26 388.819 1080.28 389.155 1079.61 389.473C1078.95 389.777 1078.23 390.19 1077.44 390.71C1076.92 391.053 1076.41 391.415 1075.92 391.796C1075.44 392.164 1074.88 392.627 1074.24 393.186C1075.49 394.989 1076.63 396.658 1077.69 398.194C1078.74 399.73 1079.85 401.355 1081 403.069C1081.4 403.666 1081.88 404.066 1082.47 404.269C1083.05 404.472 1083.64 404.599 1084.22 404.65V406.04ZM1104.9 401.489C1104.46 402.212 1103.92 402.898 1103.28 403.545C1102.66 404.18 1101.95 404.726 1101.15 405.183C1100.3 405.666 1099.44 406.027 1098.56 406.269C1097.7 406.522 1096.7 406.649 1095.57 406.649C1093.69 406.649 1092.07 406.383 1090.69 405.85C1089.34 405.316 1088.21 404.599 1087.32 403.698C1086.44 402.796 1085.77 401.736 1085.32 400.518C1084.89 399.286 1084.68 397.953 1084.68 396.519C1084.68 395.224 1084.91 393.986 1085.38 392.805C1085.86 391.612 1086.54 390.552 1087.42 389.625C1088.28 388.724 1089.37 387.994 1090.68 387.435C1092 386.876 1093.47 386.597 1095.09 386.597C1096.87 386.597 1098.33 386.813 1099.47 387.245C1100.62 387.676 1101.56 388.273 1102.31 389.035C1103.03 389.758 1103.56 390.615 1103.89 391.605C1104.22 392.583 1104.39 393.611 1104.39 394.69V395.928H1091.51C1091.51 398.531 1092.02 400.511 1093.02 401.87C1094.02 403.228 1095.61 403.907 1097.8 403.907C1098.99 403.907 1100.06 403.583 1101.02 402.936C1101.97 402.276 1102.78 401.444 1103.45 400.441L1104.9 401.489ZM1097.63 394.252C1097.63 393.491 1097.59 392.71 1097.51 391.91C1097.44 391.11 1097.3 390.457 1097.11 389.949C1096.9 389.352 1096.6 388.901 1096.22 388.597C1095.85 388.292 1095.38 388.14 1094.81 388.14C1093.83 388.14 1093.05 388.635 1092.47 389.625C1091.88 390.615 1091.56 392.183 1091.51 394.329L1097.63 394.252Z" fill="#FFF6DC"/>
</g>
<defs>
<filter id="filter0_d" x="293" y="413" width="468.145" height="274.47" filterUnits="userSpaceOnUse" color-interpolation-filters="sRGB">
<feFlood flood-opacity="0" result="BackgroundImageFix"/>
<feColorMatrix in="SourceAlpha" type="matrix" values="0 0 0 0 0 0 0 0 0 0 0 0 0 0 0 0 0 0 127 0"/>
<feOffset dx="4" dy="4"/>
<feGaussianBlur stdDeviation="3.5"/>
<feColorMatrix type="matrix" values="0 0 0 0 0 0 0 0 0 0 0 0 0 0 0 0 0 0 0.2 0"/>
<feBlend mode="normal" in2="BackgroundImageFix" result="effect1_dropShadow"/>
<feBlend mode="normal" in="SourceGraphic" in2="effect1_dropShadow" result="shape"/>
</filter>
<clipPath id="clip0">
<rect width="1024" height="1024" fill="white"/>
</clipPath>
</defs>
</svg>
